<svg xmlns="http://www.w3.org/2000/svg" width="750" viewBox="0 0 750 750" height="750" version="1.0"><defs><clipPath id="a"><path d="M 135 348 L 333.828125 348 L 333.828125 580 L 135 580 Z M 135 348"/></clipPath><clipPath id="b"><path d="M 134.328125 382 L 161 382 L 161 414 L 134.328125 414 Z M 134.328125 382"/></clipPath><clipPath id="c"><path d="M 307.652344 387.078125 L 333.675781 387.078125 L 333.675781 416.089844 L 307.652344 416.089844 Z M 307.652344 387.078125"/></clipPath></defs><g fill="#FED9E9"><g><g><path d="M 20.367188 -9.15625 C 19.492188 -12.765625 17.058594 -15.3125 12.957031 -16.945312 C 11.511719 -17.554688 10.105469 -18.390625 8.777344 -19.1875 L 7.941406 -19.71875 C 7.410156 -20.023438 7.144531 -20.441406 7.144531 -20.898438 C 7.144531 -21.390625 7.445312 -21.808594 7.980469 -22.113281 C 8.890625 -22.644531 9.992188 -23.214844 11.132812 -23.441406 C 13.601562 -24.011719 15.882812 -23.253906 17.402344 -22.644531 C 18.007812 -22.378906 18.503906 -22.378906 18.769531 -22.570312 C 19.148438 -22.835938 19.226562 -23.40625 19.1875 -23.859375 C 19.148438 -24.507812 18.960938 -25.191406 18.617188 -25.722656 C 17.78125 -27.128906 16.453125 -28.039062 14.703125 -28.457031 C 10.753906 -29.371094 7.144531 -28.535156 4.027344 -25.988281 C 2.433594 -24.660156 1.480469 -22.910156 1.40625 -21.050781 C 1.292969 -19.1875 2.050781 -17.289062 3.535156 -15.804688 C 5.660156 -13.640625 7.980469 -12.195312 10.636719 -11.398438 C 11.929688 -11.019531 13.261719 -10.410156 13.90625 -8.816406 L 14.097656 -8.398438 L 12.84375 -8.054688 C 11.324219 -7.597656 9.917969 -7.980469 8.550781 -8.359375 C 8.207031 -8.472656 7.863281 -8.550781 7.523438 -8.625 C 7.144531 -8.738281 6.761719 -8.777344 6.421875 -8.777344 C 5.089844 -8.777344 3.988281 -8.207031 3.382812 -7.179688 C 2.621094 -5.890625 2.925781 -4.179688 4.140625 -2.851562 C 5.28125 -1.597656 7.144531 -0.113281 9.535156 -0.226562 C 12.195312 -0.34375 14.4375 -0.683594 16.300781 -1.328125 C 19.644531 -2.46875 21.238281 -5.546875 20.367188 -9.15625 Z M 20.367188 -9.15625" transform="translate(75 153.812)"/></g></g></g><g fill="#FED9E9"><g><g><path d="M 16.375 -18.390625 C 14.894531 -19.910156 13.070312 -20.898438 10.980469 -21.277344 C 7.941406 -21.847656 5.167969 -20.632812 3.457031 -18.085938 C 2.164062 -16.109375 1.632812 -13.90625 1.445312 -11.589844 C 0.949219 -6.042969 4.789062 -1.40625 11.777344 -2.128906 C 12.765625 -2.203125 13.945312 -2.886719 14.667969 -3.609375 C 15.996094 -5.015625 15.539062 -6.6875 13.714844 -7.257812 C 12.460938 -7.675781 11.09375 -7.714844 9.800781 -7.941406 C 9.117188 -8.09375 8.472656 -8.320312 7.789062 -8.550781 C 10.144531 -8.96875 12.425781 -9.117188 14.476562 -9.839844 C 18.390625 -11.207031 19.261719 -15.386719 16.375 -18.390625 Z M 12.996094 -14.742188 C 11.285156 -14.550781 9.535156 -14.363281 7.636719 -14.171875 C 7.941406 -15.3125 8.433594 -16.1875 9.574219 -16.527344 C 10.867188 -16.90625 12.460938 -16.261719 13.449219 -14.933594 C 13.222656 -14.816406 13.109375 -14.742188 12.996094 -14.742188 Z M 12.996094 -14.742188" transform="translate(98.936 153.812)"/></g></g></g><g fill="#FED9E9"><g><g><path d="M 19.53125 -7.597656 C 18.960938 -10.21875 18.542969 -12.917969 17.972656 -15.578125 C 17.78125 -16.414062 17.554688 -17.515625 16.945312 -18.007812 C 15.121094 -19.414062 13.109375 -20.632812 10.5625 -20.214844 C 6.117188 -19.414062 1.785156 -14.550781 1.40625 -9.800781 C 1.0625 -5.433594 4.558594 -2.394531 8.890625 -3.417969 C 10.03125 -3.722656 11.09375 -4.371094 12.160156 -4.902344 C 12.539062 -5.089844 12.84375 -5.394531 13.222656 -5.660156 C 13.414062 -5.394531 13.5625 -5.242188 13.679688 -5.054688 C 14.933594 -3.152344 16.566406 -2.433594 18.085938 -3.078125 C 19.566406 -3.722656 20.023438 -5.320312 19.53125 -7.597656 Z M 8.511719 -8.929688 C 8.09375 -8.777344 7.484375 -8.738281 7.105469 -8.929688 C 6.878906 -9.042969 6.878906 -9.839844 7.027344 -10.21875 C 7.863281 -12.578125 9.195312 -14.476562 11.742188 -15.539062 C 12.195312 -12.613281 10.828125 -9.839844 8.511719 -8.929688 Z M 8.511719 -8.929688" transform="translate(120.364 153.812)"/></g></g></g><g fill="#FED9E9"><g><g><path d="M 17.023438 -15.085938 C 16.566406 -16.71875 15.386719 -17.859375 13.867188 -18.65625 C 11.4375 -19.871094 9.042969 -19.796875 6.648438 -18.503906 C 6.308594 -19.300781 6.191406 -20.136719 5.699219 -20.667969 C 5.167969 -21.238281 4.292969 -21.847656 3.609375 -21.769531 C 2.964844 -21.734375 2.28125 -20.898438 1.785156 -20.289062 C 1.519531 -19.984375 1.519531 -19.378906 1.519531 -18.921875 C 1.445312 -14.398438 1.40625 -9.839844 1.40625 -5.320312 C 1.367188 -4.863281 1.480469 -4.371094 1.597656 -3.914062 C 2.015625 -2.089844 3.457031 -0.949219 5.242188 -1.0625 C 6.953125 -1.179688 8.320312 -2.507812 8.511719 -4.332031 C 8.585938 -5.207031 8.320312 -6.117188 8.511719 -6.914062 C 8.929688 -8.738281 9.460938 -10.5625 10.070312 -12.308594 C 10.410156 -13.296875 11.207031 -13.488281 12.195312 -13.03125 C 12.917969 -12.652344 13.679688 -12.195312 14.476562 -12.160156 C 15.199219 -12.082031 16.261719 -12.234375 16.679688 -12.726562 C 17.097656 -13.261719 17.25 -14.363281 17.023438 -15.085938 Z M 17.023438 -15.085938" transform="translate(143.425 153.812)"/></g></g></g><g fill="#FED9E9"><g><g><path d="M 11.246094 -7.179688 C 10.488281 -7.179688 9.765625 -7.105469 9.042969 -7.21875 C 7.675781 -7.410156 6.839844 -8.320312 6.878906 -9.6875 C 6.914062 -12.160156 7.714844 -14.363281 9.726562 -15.957031 C 11.171875 -17.058594 11.855469 -16.566406 12.878906 -15.085938 C 13.144531 -14.703125 13.714844 -14.324219 14.324219 -14.628906 C 14.667969 -14.816406 15.046875 -14.589844 15.464844 -15.578125 C 16.1875 -17.210938 15.085938 -19.261719 13.488281 -20.25 C 11.816406 -21.316406 10.070312 -21.238281 8.28125 -20.480469 C 4.066406 -18.617188 1.253906 -14.058594 1.40625 -9.195312 C 1.480469 -5.660156 3.800781 -2.8125 7.257812 -2.050781 C 10.90625 -1.253906 13.980469 -2.621094 16.753906 -4.789062 C 17.171875 -5.128906 17.441406 -6.042969 17.289062 -6.574219 C 17.171875 -6.992188 16.300781 -7.371094 15.769531 -7.371094 C 14.25 -7.410156 12.726562 -7.257812 11.246094 -7.144531 C 11.246094 -7.179688 11.246094 -7.179688 11.246094 -7.179688 Z M 11.246094 -7.179688" transform="translate(163.903 153.812)"/></g></g></g><g fill="#FED9E9"><g><g><path d="M 19.644531 -9.800781 C 19.300781 -11.664062 18.882812 -13.601562 18.085938 -15.351562 C 16.300781 -19.453125 13.183594 -20.367188 9.269531 -18.238281 C 9.195312 -18.199219 9.117188 -18.199219 8.816406 -18.125 C 8.664062 -18.882812 8.511719 -19.53125 8.359375 -20.214844 C 7.789062 -23.023438 7.257812 -25.875 6.609375 -28.6875 C 6.269531 -30.167969 5.28125 -30.964844 4.140625 -30.964844 C 2.964844 -30.929688 1.976562 -30.015625 1.710938 -28.496094 C 1.519531 -27.585938 1.328125 -26.597656 1.40625 -25.683594 C 1.671875 -20.746094 1.9375 -15.769531 2.355469 -10.828125 C 2.507812 -8.851562 2.964844 -6.839844 3.457031 -4.902344 C 3.800781 -3.648438 4.789062 -2.886719 6.15625 -2.851562 C 7.597656 -2.8125 8.585938 -3.609375 8.96875 -4.902344 C 9.421875 -6.34375 9.726562 -7.828125 9.917969 -9.308594 C 10.21875 -11.324219 11.171875 -12.917969 12.84375 -14.398438 C 13.144531 -13.601562 13.488281 -13.03125 13.5625 -12.460938 C 13.792969 -11.09375 13.867188 -9.6875 14.097656 -8.359375 C 14.25 -7.332031 14.363281 -6.269531 14.742188 -5.320312 C 15.351562 -3.722656 17.058594 -3.535156 18.125 -4.863281 C 19.261719 -6.308594 19.949219 -7.980469 19.644531 -9.800781 Z M 19.644531 -9.800781" transform="translate(184.61 153.812)"/></g></g></g><g fill="#FED9E9"><g><g><path d="M 17.023438 -15.085938 C 16.566406 -16.71875 15.386719 -17.859375 13.867188 -18.65625 C 11.4375 -19.871094 9.042969 -19.796875 6.648438 -18.503906 C 6.308594 -19.300781 6.191406 -20.136719 5.699219 -20.667969 C 5.167969 -21.238281 4.292969 -21.847656 3.609375 -21.769531 C 2.964844 -21.734375 2.28125 -20.898438 1.785156 -20.289062 C 1.519531 -19.984375 1.519531 -19.378906 1.519531 -18.921875 C 1.445312 -14.398438 1.40625 -9.839844 1.40625 -5.320312 C 1.367188 -4.863281 1.480469 -4.371094 1.597656 -3.914062 C 2.015625 -2.089844 3.457031 -0.949219 5.242188 -1.0625 C 6.953125 -1.179688 8.320312 -2.507812 8.511719 -4.332031 C 8.585938 -5.207031 8.320312 -6.117188 8.511719 -6.914062 C 8.929688 -8.738281 9.460938 -10.5625 10.070312 -12.308594 C 10.410156 -13.296875 11.207031 -13.488281 12.195312 -13.03125 C 12.917969 -12.652344 13.679688 -12.195312 14.476562 -12.160156 C 15.199219 -12.082031 16.261719 -12.234375 16.679688 -12.726562 C 17.097656 -13.261719 17.25 -14.363281 17.023438 -15.085938 Z M 17.023438 -15.085938" transform="translate(220.475 153.812)"/></g></g></g><g fill="#FED9E9"><g><g><path d="M 16.375 -18.390625 C 14.894531 -19.910156 13.070312 -20.898438 10.980469 -21.277344 C 7.941406 -21.847656 5.167969 -20.632812 3.457031 -18.085938 C 2.164062 -16.109375 1.632812 -13.90625 1.445312 -11.589844 C 0.949219 -6.042969 4.789062 -1.40625 11.777344 -2.128906 C 12.765625 -2.203125 13.945312 -2.886719 14.667969 -3.609375 C 15.996094 -5.015625 15.539062 -6.6875 13.714844 -7.257812 C 12.460938 -7.675781 11.09375 -7.714844 9.800781 -7.941406 C 9.117188 -8.09375 8.472656 -8.320312 7.789062 -8.550781 C 10.144531 -8.96875 12.425781 -9.117188 14.476562 -9.839844 C 18.390625 -11.207031 19.261719 -15.386719 16.375 -18.390625 Z M 12.996094 -14.742188 C 11.285156 -14.550781 9.535156 -14.363281 7.636719 -14.171875 C 7.941406 -15.3125 8.433594 -16.1875 9.574219 -16.527344 C 10.867188 -16.90625 12.460938 -16.261719 13.449219 -14.933594 C 13.222656 -14.816406 13.109375 -14.742188 12.996094 -14.742188 Z M 12.996094 -14.742188" transform="translate(240.953 153.812)"/></g></g></g><g fill="#FED9E9"><g><g><path d="M 15.84375 -6.574219 C 15.386719 -7.75 14.398438 -8.132812 13.222656 -8.015625 C 12.613281 -7.980469 12.007812 -7.828125 11.4375 -7.75 C 10.488281 -7.636719 9.726562 -8.015625 9.574219 -8.96875 C 9.308594 -10.488281 9.195312 -12.007812 9.003906 -13.5625 C 10.371094 -13.5625 11.4375 -13.488281 12.460938 -13.5625 C 13.867188 -13.679688 14.933594 -14.742188 15.046875 -16.035156 C 15.160156 -17.324219 14.285156 -18.542969 12.878906 -18.882812 C 12.007812 -19.113281 11.09375 -19.1875 10.21875 -19.1875 C 9.421875 -19.226562 9.15625 -19.53125 9.15625 -20.328125 C 9.15625 -21.390625 9.117188 -22.492188 8.96875 -23.558594 C 8.777344 -25.113281 8.054688 -25.875 7.027344 -25.914062 C 5.964844 -25.914062 5.28125 -25.152344 4.976562 -23.59375 C 4.824219 -22.722656 4.636719 -21.808594 4.597656 -20.933594 C 4.519531 -19.910156 4.066406 -19.492188 3.152344 -19.113281 C 2.433594 -18.808594 1.710938 -17.972656 1.480469 -17.25 C 1.140625 -16.222656 1.898438 -15.425781 2.851562 -15.046875 C 3.609375 -14.742188 3.761719 -14.285156 3.761719 -13.5625 C 3.761719 -12.007812 3.835938 -10.449219 3.988281 -8.890625 C 4.21875 -6.6875 5.242188 -4.902344 7.027344 -3.535156 C 9.234375 -1.863281 13.109375 -1.898438 15.007812 -3.683594 C 15.84375 -4.484375 16.300781 -5.433594 15.84375 -6.574219 Z M 15.84375 -6.574219" transform="translate(262.381 153.812)"/></g></g></g><g fill="#FED9E9"><g><g><path d="M 18.617188 -6.382812 C 17.820312 -9.839844 17.097656 -13.296875 17.589844 -16.871094 C 17.628906 -17.136719 17.589844 -17.402344 17.589844 -17.667969 C 17.515625 -19.148438 16.605469 -20.175781 15.273438 -20.328125 C 13.90625 -20.480469 12.765625 -19.71875 12.386719 -18.277344 C 11.816406 -16.1875 11.4375 -14.058594 10.867188 -12.007812 C 10.523438 -10.90625 10.070312 -9.800781 9.382812 -8.890625 C 8.585938 -7.75 7.789062 -7.902344 7.371094 -9.234375 C 7.027344 -10.371094 6.800781 -11.550781 6.6875 -12.765625 C 6.535156 -14.25 6.535156 -15.769531 6.460938 -17.289062 C 6.382812 -18.3125 6.078125 -19.1875 4.9375 -19.378906 C 3.875 -19.566406 3.152344 -18.960938 2.8125 -18.046875 C 1.179688 -14.019531 0.796875 -9.917969 2.507812 -5.851562 C 4.027344 -2.316406 7.675781 -1.140625 11.054688 -2.925781 C 12.007812 -3.417969 12.84375 -4.101562 13.792969 -4.75 C 13.90625 -4.636719 13.945312 -4.597656 14.019531 -4.519531 C 14.96875 -2.886719 16.070312 -2.355469 17.324219 -2.851562 C 18.578125 -3.382812 19.035156 -4.671875 18.617188 -6.382812 Z M 18.617188 -6.382812" transform="translate(281.758 153.812)"/></g></g></g><g fill="#FED9E9"><g><g><path d="M 17.023438 -15.085938 C 16.566406 -16.71875 15.386719 -17.859375 13.867188 -18.65625 C 11.4375 -19.871094 9.042969 -19.796875 6.648438 -18.503906 C 6.308594 -19.300781 6.191406 -20.136719 5.699219 -20.667969 C 5.167969 -21.238281 4.292969 -21.847656 3.609375 -21.769531 C 2.964844 -21.734375 2.28125 -20.898438 1.785156 -20.289062 C 1.519531 -19.984375 1.519531 -19.378906 1.519531 -18.921875 C 1.445312 -14.398438 1.40625 -9.839844 1.40625 -5.320312 C 1.367188 -4.863281 1.480469 -4.371094 1.597656 -3.914062 C 2.015625 -2.089844 3.457031 -0.949219 5.242188 -1.0625 C 6.953125 -1.179688 8.320312 -2.507812 8.511719 -4.332031 C 8.585938 -5.207031 8.320312 -6.117188 8.511719 -6.914062 C 8.929688 -8.738281 9.460938 -10.5625 10.070312 -12.308594 C 10.410156 -13.296875 11.207031 -13.488281 12.195312 -13.03125 C 12.917969 -12.652344 13.679688 -12.195312 14.476562 -12.160156 C 15.199219 -12.082031 16.261719 -12.234375 16.679688 -12.726562 C 17.097656 -13.261719 17.25 -14.363281 17.023438 -15.085938 Z M 17.023438 -15.085938" transform="translate(303.87 153.812)"/></g></g></g><g fill="#FED9E9"><g><g><path d="M 17.515625 -16.414062 C 15.386719 -19.261719 12.082031 -19.71875 9.195312 -17.667969 C 8.359375 -17.058594 7.597656 -16.335938 6.726562 -15.578125 C 6.574219 -15.882812 6.496094 -16.070312 6.421875 -16.300781 C 6.078125 -17.476562 5.546875 -18.578125 4.101562 -18.542969 C 2.582031 -18.464844 2.128906 -17.210938 2.015625 -15.996094 C 1.746094 -12.5 1.480469 -9.003906 1.40625 -5.507812 C 1.328125 -3.570312 2.621094 -2.242188 4.292969 -2.050781 C 5.964844 -1.863281 7.410156 -2.925781 7.863281 -4.863281 C 8.472656 -7.5625 9.953125 -9.800781 11.625 -11.929688 C 11.890625 -12.273438 12.273438 -12.5 12.804688 -12.996094 C 12.996094 -12.007812 13.109375 -11.359375 13.183594 -10.675781 C 13.449219 -8.890625 13.5625 -7.027344 14.019531 -5.242188 C 14.398438 -3.722656 15.691406 -2.964844 17.023438 -3 C 18.238281 -3.078125 19.414062 -3.988281 19.644531 -5.507812 C 20.25 -9.382812 19.910156 -13.144531 17.515625 -16.414062 Z M 17.515625 -16.414062" transform="translate(324.348 153.812)"/></g></g></g><g fill="#FED9E9"><g><g><path d="M 16.375 -18.390625 C 14.894531 -19.910156 13.070312 -20.898438 10.980469 -21.277344 C 7.941406 -21.847656 5.167969 -20.632812 3.457031 -18.085938 C 2.164062 -16.109375 1.632812 -13.90625 1.445312 -11.589844 C 0.949219 -6.042969 4.789062 -1.40625 11.777344 -2.128906 C 12.765625 -2.203125 13.945312 -2.886719 14.667969 -3.609375 C 15.996094 -5.015625 15.539062 -6.6875 13.714844 -7.257812 C 12.460938 -7.675781 11.09375 -7.714844 9.800781 -7.941406 C 9.117188 -8.09375 8.472656 -8.320312 7.789062 -8.550781 C 10.144531 -8.96875 12.425781 -9.117188 14.476562 -9.839844 C 18.390625 -11.207031 19.261719 -15.386719 16.375 -18.390625 Z M 12.996094 -14.742188 C 11.285156 -14.550781 9.535156 -14.363281 7.636719 -14.171875 C 7.941406 -15.3125 8.433594 -16.1875 9.574219 -16.527344 C 10.867188 -16.90625 12.460938 -16.261719 13.449219 -14.933594 C 13.222656 -14.816406 13.109375 -14.742188 12.996094 -14.742188 Z M 12.996094 -14.742188" transform="translate(347.6 153.812)"/></g></g></g><g fill="#FED9E9"><g><g><path d="M 19.226562 -27.699219 C 19.1875 -28.421875 19.113281 -29.292969 18.695312 -29.789062 C 18.199219 -30.359375 17.324219 -30.929688 16.605469 -30.890625 C 15.996094 -30.851562 15.351562 -30.054688 14.933594 -29.445312 C 14.628906 -29.027344 14.703125 -28.382812 14.667969 -27.8125 C 14.4375 -24.8125 14.25 -21.808594 14.019531 -18.695312 C 13.640625 -18.808594 13.335938 -18.882812 13.070312 -18.960938 C 7.636719 -20.859375 3.835938 -19.035156 2.050781 -13.5625 C 1.824219 -12.84375 1.632812 -12.121094 1.519531 -11.398438 C 0.761719 -6.648438 3.265625 -2.621094 7.5625 -1.671875 C 9.574219 -1.214844 11.511719 -1.558594 13.375 -2.355469 C 13.832031 -2.546875 14.398438 -2.699219 14.816406 -2.546875 C 17.441406 -1.632812 19.226562 -2.734375 19.261719 -5.546875 C 19.300781 -12.917969 19.261719 -20.328125 19.226562 -27.699219 Z M 13.144531 -8.890625 C 11.929688 -8.511719 10.675781 -8.167969 9.421875 -7.828125 C 8.398438 -7.863281 7.675781 -8.398438 7.75 -9.308594 C 7.902344 -10.523438 8.359375 -11.742188 8.816406 -12.917969 C 8.890625 -13.183594 9.460938 -13.375 9.800781 -13.375 C 11.511719 -13.449219 13.640625 -11.324219 13.527344 -9.613281 C 13.527344 -9.347656 13.335938 -8.96875 13.144531 -8.890625 Z M 13.144531 -8.890625" transform="translate(369.028 153.812)"/></g></g></g><g fill="#FED9E9"><g><g><path d="M 17.515625 -16.414062 C 15.386719 -19.261719 12.082031 -19.71875 9.195312 -17.667969 C 8.359375 -17.058594 7.597656 -16.335938 6.726562 -15.578125 C 6.574219 -15.882812 6.496094 -16.070312 6.421875 -16.300781 C 6.078125 -17.476562 5.546875 -18.578125 4.101562 -18.542969 C 2.582031 -18.464844 2.128906 -17.210938 2.015625 -15.996094 C 1.746094 -12.5 1.480469 -9.003906 1.40625 -5.507812 C 1.328125 -3.570312 2.621094 -2.242188 4.292969 -2.050781 C 5.964844 -1.863281 7.410156 -2.925781 7.863281 -4.863281 C 8.472656 -7.5625 9.953125 -9.800781 11.625 -11.929688 C 11.890625 -12.273438 12.273438 -12.5 12.804688 -12.996094 C 12.996094 -12.007812 13.109375 -11.359375 13.183594 -10.675781 C 13.449219 -8.890625 13.5625 -7.027344 14.019531 -5.242188 C 14.398438 -3.722656 15.691406 -2.964844 17.023438 -3 C 18.238281 -3.078125 19.414062 -3.988281 19.644531 -5.507812 C 20.25 -9.382812 19.910156 -13.144531 17.515625 -16.414062 Z M 17.515625 -16.414062" transform="translate(404.437 153.812)"/></g></g></g><g fill="#FED9E9"><g><g><path d="M 13.375 -17.820312 C 12.5 -17.933594 11.625 -18.085938 10.753906 -18.3125 C 9.195312 -18.769531 7.714844 -18.578125 6.34375 -17.742188 C 3.191406 -15.84375 1.179688 -13.109375 0.644531 -9.421875 C 0.191406 -6.269531 1.597656 -3.800781 4.597656 -2.773438 C 6.117188 -2.242188 7.714844 -2.050781 9.269531 -1.710938 C 11.625 -1.671875 13.5625 -2.433594 15.199219 -4.027344 C 17.171875 -5.925781 18.199219 -8.320312 18.578125 -11.019531 C 19.035156 -14.4375 16.832031 -17.324219 13.375 -17.820312 Z M 12.273438 -10.523438 C 11.550781 -8.433594 10.828125 -7.75 9.347656 -7.828125 C 6.382812 -7.980469 5.925781 -8.816406 7.410156 -11.4375 C 7.523438 -11.625 7.636719 -11.816406 7.75 -12.007812 C 9.195312 -14.132812 9.5 -14.132812 11.589844 -12.691406 C 12.425781 -12.082031 12.613281 -11.472656 12.273438 -10.523438 Z M 12.273438 -10.523438" transform="translate(427.689 153.812)"/></g></g></g><g fill="#FED9E9"><g><g><path d="M 17.023438 -15.085938 C 16.566406 -16.71875 15.386719 -17.859375 13.867188 -18.65625 C 11.4375 -19.871094 9.042969 -19.796875 6.648438 -18.503906 C 6.308594 -19.300781 6.191406 -20.136719 5.699219 -20.667969 C 5.167969 -21.238281 4.292969 -21.847656 3.609375 -21.769531 C 2.964844 -21.734375 2.28125 -20.898438 1.785156 -20.289062 C 1.519531 -19.984375 1.519531 -19.378906 1.519531 -18.921875 C 1.445312 -14.398438 1.40625 -9.839844 1.40625 -5.320312 C 1.367188 -4.863281 1.480469 -4.371094 1.597656 -3.914062 C 2.015625 -2.089844 3.457031 -0.949219 5.242188 -1.0625 C 6.953125 -1.179688 8.320312 -2.507812 8.511719 -4.332031 C 8.585938 -5.207031 8.320312 -6.117188 8.511719 -6.914062 C 8.929688 -8.738281 9.460938 -10.5625 10.070312 -12.308594 C 10.410156 -13.296875 11.207031 -13.488281 12.195312 -13.03125 C 12.917969 -12.652344 13.679688 -12.195312 14.476562 -12.160156 C 15.199219 -12.082031 16.261719 -12.234375 16.679688 -12.726562 C 17.097656 -13.261719 17.25 -14.363281 17.023438 -15.085938 Z M 17.023438 -15.085938" transform="translate(461.959 153.812)"/></g></g></g><g fill="#FED9E9"><g><g><path d="M 16.375 -18.390625 C 14.894531 -19.910156 13.070312 -20.898438 10.980469 -21.277344 C 7.941406 -21.847656 5.167969 -20.632812 3.457031 -18.085938 C 2.164062 -16.109375 1.632812 -13.90625 1.445312 -11.589844 C 0.949219 -6.042969 4.789062 -1.40625 11.777344 -2.128906 C 12.765625 -2.203125 13.945312 -2.886719 14.667969 -3.609375 C 15.996094 -5.015625 15.539062 -6.6875 13.714844 -7.257812 C 12.460938 -7.675781 11.09375 -7.714844 9.800781 -7.941406 C 9.117188 -8.09375 8.472656 -8.320312 7.789062 -8.550781 C 10.144531 -8.96875 12.425781 -9.117188 14.476562 -9.839844 C 18.390625 -11.207031 19.261719 -15.386719 16.375 -18.390625 Z M 12.996094 -14.742188 C 11.285156 -14.550781 9.535156 -14.363281 7.636719 -14.171875 C 7.941406 -15.3125 8.433594 -16.1875 9.574219 -16.527344 C 10.867188 -16.90625 12.460938 -16.261719 13.449219 -14.933594 C 13.222656 -14.816406 13.109375 -14.742188 12.996094 -14.742188 Z M 12.996094 -14.742188" transform="translate(482.437 153.812)"/></g></g></g><g fill="#FED9E9"><g><g><path d="M 14.476562 -10.980469 C 13.03125 -12.308594 11.09375 -13.144531 9.347656 -14.210938 C 8.851562 -14.515625 8.320312 -14.703125 7.675781 -15.046875 C 9.042969 -16.640625 10.371094 -16.871094 12.195312 -15.882812 C 13.03125 -15.464844 13.945312 -15.085938 14.589844 -15.84375 C 15.085938 -16.414062 15.386719 -17.402344 15.3125 -18.125 C 15.085938 -20.023438 13.832031 -21.203125 12.042969 -21.769531 C 8.433594 -22.910156 3.875 -21.011719 2.128906 -17.667969 C 0.949219 -15.386719 1.140625 -12.957031 3.078125 -11.285156 C 4.332031 -10.21875 5.925781 -9.613281 7.410156 -8.890625 C 8.28125 -8.433594 9.234375 -8.207031 10.144531 -7.863281 C 10.105469 -7.714844 10.070312 -7.5625 10.03125 -7.371094 C 8.816406 -7.484375 7.636719 -7.597656 6.460938 -7.75 C 4.710938 -7.941406 3.34375 -7.371094 2.8125 -6.15625 C 2.242188 -4.863281 2.582031 -3.152344 3.988281 -2.28125 C 5.207031 -1.519531 6.648438 -0.910156 8.015625 -0.796875 C 9.535156 -0.722656 11.132812 -1.101562 12.578125 -1.632812 C 17.023438 -3.304688 17.972656 -7.75 14.476562 -10.980469 Z M 14.476562 -10.980469" transform="translate(503.865 153.812)"/></g></g></g><g fill="#FED9E9"><g><g><path d="M 18.617188 -6.382812 C 17.820312 -9.839844 17.097656 -13.296875 17.589844 -16.871094 C 17.628906 -17.136719 17.589844 -17.402344 17.589844 -17.667969 C 17.515625 -19.148438 16.605469 -20.175781 15.273438 -20.328125 C 13.90625 -20.480469 12.765625 -19.71875 12.386719 -18.277344 C 11.816406 -16.1875 11.4375 -14.058594 10.867188 -12.007812 C 10.523438 -10.90625 10.070312 -9.800781 9.382812 -8.890625 C 8.585938 -7.75 7.789062 -7.902344 7.371094 -9.234375 C 7.027344 -10.371094 6.800781 -11.550781 6.6875 -12.765625 C 6.535156 -14.25 6.535156 -15.769531 6.460938 -17.289062 C 6.382812 -18.3125 6.078125 -19.1875 4.9375 -19.378906 C 3.875 -19.566406 3.152344 -18.960938 2.8125 -18.046875 C 1.179688 -14.019531 0.796875 -9.917969 2.507812 -5.851562 C 4.027344 -2.316406 7.675781 -1.140625 11.054688 -2.925781 C 12.007812 -3.417969 12.84375 -4.101562 13.792969 -4.75 C 13.90625 -4.636719 13.945312 -4.597656 14.019531 -4.519531 C 14.96875 -2.886719 16.070312 -2.355469 17.324219 -2.851562 C 18.578125 -3.382812 19.035156 -4.671875 18.617188 -6.382812 Z M 18.617188 -6.382812" transform="translate(523.811 153.812)"/></g></g></g><g fill="#FED9E9"><g><g><path d="M 6.839844 -24.242188 C 6.761719 -25.230469 6.6875 -26.292969 6.230469 -27.128906 C 5.925781 -27.738281 5.054688 -28.421875 4.40625 -28.421875 C 3.761719 -28.421875 3 -27.738281 2.507812 -27.167969 C 2.164062 -26.710938 2.050781 -25.988281 1.976562 -25.34375 C 1.632812 -21.582031 1.328125 -9.574219 1.40625 -7.371094 C 1.40625 -6.421875 1.558594 -5.472656 1.785156 -4.558594 C 2.203125 -3.117188 3.230469 -2.28125 4.40625 -2.242188 C 5.585938 -2.203125 6.761719 -2.964844 7.144531 -4.40625 C 7.523438 -6.042969 7.828125 -7.714844 7.75 -9.382812 C 7.5625 -14.324219 7.179688 -19.300781 6.839844 -24.242188 Z M 6.839844 -24.242188" transform="translate(545.923 153.812)"/></g></g></g><g fill="#FED9E9"><g><g><path d="M 15.84375 -6.574219 C 15.386719 -7.75 14.398438 -8.132812 13.222656 -8.015625 C 12.613281 -7.980469 12.007812 -7.828125 11.4375 -7.75 C 10.488281 -7.636719 9.726562 -8.015625 9.574219 -8.96875 C 9.308594 -10.488281 9.195312 -12.007812 9.003906 -13.5625 C 10.371094 -13.5625 11.4375 -13.488281 12.460938 -13.5625 C 13.867188 -13.679688 14.933594 -14.742188 15.046875 -16.035156 C 15.160156 -17.324219 14.285156 -18.542969 12.878906 -18.882812 C 12.007812 -19.113281 11.09375 -19.1875 10.21875 -19.1875 C 9.421875 -19.226562 9.15625 -19.53125 9.15625 -20.328125 C 9.15625 -21.390625 9.117188 -22.492188 8.96875 -23.558594 C 8.777344 -25.113281 8.054688 -25.875 7.027344 -25.914062 C 5.964844 -25.914062 5.28125 -25.152344 4.976562 -23.59375 C 4.824219 -22.722656 4.636719 -21.808594 4.597656 -20.933594 C 4.519531 -19.910156 4.066406 -19.492188 3.152344 -19.113281 C 2.433594 -18.808594 1.710938 -17.972656 1.480469 -17.25 C 1.140625 -16.222656 1.898438 -15.425781 2.851562 -15.046875 C 3.609375 -14.742188 3.761719 -14.285156 3.761719 -13.5625 C 3.761719 -12.007812 3.835938 -10.449219 3.988281 -8.890625 C 4.21875 -6.6875 5.242188 -4.902344 7.027344 -3.535156 C 9.234375 -1.863281 13.109375 -1.898438 15.007812 -3.683594 C 15.84375 -4.484375 16.300781 -5.433594 15.84375 -6.574219 Z M 15.84375 -6.574219" transform="translate(557.017 153.812)"/></g></g></g><g fill="#FED9E9"><g><g><path d="M 14.476562 -10.980469 C 13.03125 -12.308594 11.09375 -13.144531 9.347656 -14.210938 C 8.851562 -14.515625 8.320312 -14.703125 7.675781 -15.046875 C 9.042969 -16.640625 10.371094 -16.871094 12.195312 -15.882812 C 13.03125 -15.464844 13.945312 -15.085938 14.589844 -15.84375 C 15.085938 -16.414062 15.386719 -17.402344 15.3125 -18.125 C 15.085938 -20.023438 13.832031 -21.203125 12.042969 -21.769531 C 8.433594 -22.910156 3.875 -21.011719 2.128906 -17.667969 C 0.949219 -15.386719 1.140625 -12.957031 3.078125 -11.285156 C 4.332031 -10.21875 5.925781 -9.613281 7.410156 -8.890625 C 8.28125 -8.433594 9.234375 -8.207031 10.144531 -7.863281 C 10.105469 -7.714844 10.070312 -7.5625 10.03125 -7.371094 C 8.816406 -7.484375 7.636719 -7.597656 6.460938 -7.75 C 4.710938 -7.941406 3.34375 -7.371094 2.8125 -6.15625 C 2.242188 -4.863281 2.582031 -3.152344 3.988281 -2.28125 C 5.207031 -1.519531 6.648438 -0.910156 8.015625 -0.796875 C 9.535156 -0.722656 11.132812 -1.101562 12.578125 -1.632812 C 17.023438 -3.304688 17.972656 -7.75 14.476562 -10.980469 Z M 14.476562 -10.980469" transform="translate(576.394 153.812)"/></g></g></g><g fill="#FED9E9"><g><g><path d="M 10.980469 -26.558594 C 10.828125 -28.117188 9.953125 -29.140625 8.664062 -29.332031 C 7.371094 -29.523438 6.269531 -28.875 5.625 -27.433594 C 5.433594 -27.089844 5.320312 -26.710938 5.207031 -26.367188 C 3.570312 -21.621094 3.039062 -16.679688 2.699219 -11.742188 C 2.699219 -11.207031 2.773438 -10.675781 2.886719 -10.183594 C 3.191406 -9.082031 3.914062 -8.28125 5.089844 -8.09375 C 6.269531 -7.863281 7.257812 -8.28125 7.902344 -9.269531 C 8.359375 -9.953125 8.777344 -10.714844 8.929688 -11.472656 C 9.765625 -15.882812 11.019531 -25.988281 10.980469 -26.558594 Z M 5.546875 -3.609375 C 4.027344 -3.683594 2.621094 -2.128906 2.582031 -0.304688 C 2.546875 1.140625 3.535156 2.242188 4.863281 2.316406 C 6.460938 2.394531 8.28125 0.761719 8.28125 -0.761719 C 8.28125 -2.089844 6.914062 -3.535156 5.546875 -3.609375 Z M 5.546875 -3.609375" transform="translate(596.34 153.812)"/></g></g></g><g fill="#FED9E9"><g><g><path d="M 10.980469 -26.558594 C 10.828125 -28.117188 9.953125 -29.140625 8.664062 -29.332031 C 7.371094 -29.523438 6.269531 -28.875 5.625 -27.433594 C 5.433594 -27.089844 5.320312 -26.710938 5.207031 -26.367188 C 3.570312 -21.621094 3.039062 -16.679688 2.699219 -11.742188 C 2.699219 -11.207031 2.773438 -10.675781 2.886719 -10.183594 C 3.191406 -9.082031 3.914062 -8.28125 5.089844 -8.09375 C 6.269531 -7.863281 7.257812 -8.28125 7.902344 -9.269531 C 8.359375 -9.953125 8.777344 -10.714844 8.929688 -11.472656 C 9.765625 -15.882812 11.019531 -25.988281 10.980469 -26.558594 Z M 5.546875 -3.609375 C 4.027344 -3.683594 2.621094 -2.128906 2.582031 -0.304688 C 2.546875 1.140625 3.535156 2.242188 4.863281 2.316406 C 6.460938 2.394531 8.28125 0.761719 8.28125 -0.761719 C 8.28125 -2.089844 6.914062 -3.535156 5.546875 -3.609375 Z M 5.546875 -3.609375" transform="translate(610.663 153.812)"/></g></g></g><g fill="#FED9E9"><g><g><path d="M 4.332031 -8.246094 C 2.8125 -8.28125 1.40625 -6.800781 1.40625 -5.207031 C 1.367188 -3.722656 2.621094 -2.46875 4.101562 -2.546875 C 5.625 -2.582031 6.800781 -3.953125 6.800781 -5.585938 C 6.761719 -7.105469 5.738281 -8.246094 4.332031 -8.246094 Z M 4.332031 -8.246094" transform="translate(624.987 153.812)"/></g></g></g><g fill="#FED9E9"><g><g><path d="M 4.332031 -8.246094 C 2.8125 -8.28125 1.40625 -6.800781 1.40625 -5.207031 C 1.367188 -3.722656 2.621094 -2.46875 4.101562 -2.546875 C 5.625 -2.582031 6.800781 -3.953125 6.800781 -5.585938 C 6.761719 -7.105469 5.738281 -8.246094 4.332031 -8.246094 Z M 4.332031 -8.246094" transform="translate(635.131 153.812)"/></g></g></g><g fill="#FED9E9"><g><g><path d="M 4.332031 -8.246094 C 2.8125 -8.28125 1.40625 -6.800781 1.40625 -5.207031 C 1.367188 -3.722656 2.621094 -2.46875 4.101562 -2.546875 C 5.625 -2.582031 6.800781 -3.953125 6.800781 -5.585938 C 6.761719 -7.105469 5.738281 -8.246094 4.332031 -8.246094 Z M 4.332031 -8.246094" transform="translate(645.275 153.812)"/></g></g></g><path fill="#CED3FF" d="M 473.953125 516.511719 C 432.792969 521.109375 429.070312 524.832031 424.476562 566.015625 C 419.882812 524.832031 416.160156 521.109375 375 516.511719 C 416.160156 511.917969 419.882812 508.191406 424.476562 467.011719 C 429.070312 508.191406 432.792969 511.917969 473.953125 516.511719"/><path fill="#CED3FF" d="M 666.597656 305.902344 C 605.441406 312.722656 599.910156 318.277344 593.089844 379.445312 C 586.273438 318.277344 580.742188 312.722656 519.582031 305.902344 C 580.742188 299.078125 586.273438 293.546875 593.089844 232.355469 C 599.910156 293.546875 605.441406 299.078125 666.597656 305.902344"/><path fill="#CED3FF" d="M 672.792969 509.359375 C 646.726562 512.269531 644.355469 514.621094 641.464844 540.703125 C 638.535156 514.621094 636.1875 512.269531 610.117188 509.359375 C 636.1875 506.445312 638.535156 504.097656 641.464844 477.992188 C 644.355469 504.097656 646.726562 506.445312 672.792969 509.359375"/><path fill="#CED3FF" d="M 704.121094 637.003906 C 672.898438 640.476562 670.09375 643.304688 666.597656 674.546875 C 663.128906 643.304688 660.300781 640.476562 629.078125 637.003906 C 660.300781 633.507812 663.128906 630.679688 666.597656 599.4375 C 670.09375 630.679688 672.898438 633.507812 704.121094 637.003906"/><path fill="#CED3FF" d="M 516.339844 654.910156 C 500.726562 656.65625 499.316406 658.070312 497.570312 673.691406 C 495.84375 658.070312 494.429688 656.65625 478.816406 654.910156 C 494.429688 653.183594 495.84375 651.769531 497.570312 636.148438 C 499.316406 651.769531 500.726562 653.183594 516.339844 654.910156"/><path fill="#FFF" d="M 523.117188 442.570312 C 523.117188 447.75 518.917969 451.953125 513.722656 451.953125 C 508.542969 451.953125 504.34375 447.75 504.34375 442.570312 C 504.34375 437.394531 508.546875 433.191406 513.722656 433.191406 C 518.917969 433.191406 523.117188 437.394531 523.117188 442.570312"/><path fill="#FFF" d="M 443.226562 331.296875 C 443.226562 336.476562 439.027344 340.675781 433.851562 340.675781 C 428.675781 340.675781 424.476562 336.476562 424.476562 331.296875 C 424.476562 326.117188 428.675781 321.914062 433.851562 321.914062 C 439.027344 321.914062 443.226562 326.117188 443.226562 331.296875"/><path fill="#FFF" d="M 714.785156 451.953125 C 714.785156 453.761719 713.3125 455.21875 711.503906 455.21875 C 709.714844 455.21875 708.238281 453.761719 708.238281 451.953125 C 708.238281 450.144531 709.714844 448.6875 711.503906 448.6875 C 713.3125 448.6875 714.785156 450.144531 714.785156 451.953125"/><path fill="#FFF" d="M 717.675781 324.515625 C 717.675781 328.257812 714.664062 331.296875 710.921875 331.296875 C 707.179688 331.296875 704.121094 328.257812 704.121094 324.515625 C 704.121094 320.773438 707.179688 317.734375 710.921875 317.734375 C 714.664062 317.734375 717.675781 320.773438 717.675781 324.515625"/><path fill="#FFF" d="M 511.121094 607.238281 C 511.121094 610.984375 508.085938 614 504.34375 614 C 500.605469 614 497.570312 610.984375 497.570312 607.238281 C 497.570312 603.472656 500.605469 600.4375 504.34375 600.4375 C 508.085938 600.4375 511.121094 603.472656 511.121094 607.238281"/><path fill="#D1DAEA" d="M 692.460938 549.8125 L 659.761719 576.332031 L 523.597656 408.378906 L 556.296875 381.816406 L 692.460938 549.8125"/><path fill="#9CAFCC" d="M 659.761719 576.332031 L 622.175781 606.824219 L 557.230469 449.871094 Z M 659.761719 576.332031"/><path fill="#D1DAEA" d="M 692.460938 549.8125 L 730.046875 519.300781 L 589.929688 423.332031 Z M 692.460938 549.8125"/><path fill="#9CAFCC" d="M 692.460938 549.8125 L 730.046875 519.300781 L 589.929688 423.332031 Z M 692.460938 549.8125"/><path fill="#232946" d="M 607.644531 571.691406 L 622.175781 606.824219 L 659.761719 576.332031 L 636.808594 548.023438 L 607.644531 571.691406"/><path fill="#232946" d="M 573.863281 470.378906 L 557.230469 449.871094 L 567.769531 475.332031 Z M 573.863281 470.378906"/><path fill="#232946" d="M 571.035156 483.191406 L 577.292969 498.355469 L 588.890625 488.933594 L 579.019531 476.722656 L 571.035156 483.191406"/><path fill="#D1DAEA" d="M 669.488281 521.484375 L 692.460938 549.8125 L 730.046875 519.300781 L 698.65625 497.816406 L 669.488281 521.484375"/><path fill="#232946" d="M 669.488281 521.484375 L 692.460938 549.8125 L 730.046875 519.300781 L 698.65625 497.816406 L 669.488281 521.484375"/><path fill="#D1DAEA" d="M 612.652344 438.910156 L 589.933594 423.332031 L 606.5625 443.839844 Z M 612.652344 438.910156"/><path fill="#232946" d="M 612.652344 438.910156 L 589.933594 423.332031 L 606.5625 443.839844 Z M 612.652344 438.910156"/><path fill="#D1DAEA" d="M 611.695312 450.183594 L 621.59375 462.394531 L 633.214844 452.992188 L 619.679688 443.714844 L 611.695312 450.183594"/><path fill="#232946" d="M 611.695312 450.183594 L 621.59375 462.394531 L 633.214844 452.992188 L 619.679688 443.714844 L 611.695312 450.183594"/><path fill="#9CAFCC" d="M 498.648438 343.609375 L 498.628906 343.628906 L 498.128906 344.023438 L 498.089844 344.046875 L 526.464844 406.027344 L 539.6875 395.296875 L 540.183594 394.898438 L 553.40625 384.167969 L 498.648438 343.609375"/><g clip-path="url(#a)"><path fill="#D1DAEA" d="M 331.9375 404.296875 C 330.859375 404.296875 329.230469 404.941406 328.355469 405.289062 C 328.171875 405.359375 328.015625 405.425781 327.902344 405.464844 L 327.3125 404.535156 C 327.632812 404.210938 327.9375 403.890625 328.242188 403.570312 C 328.996094 402.777344 329.777344 401.957031 330.746094 401.191406 C 330.917969 401.058594 331.089844 400.929688 331.261719 400.796875 C 332.507812 399.855469 333.265625 399.21875 333.082031 398.054688 C 332.992188 397.511719 332.773438 397.402344 332.425781 397.402344 C 331.839844 397.402344 331.035156 397.769531 330.445312 398.039062 L 330.226562 398.140625 C 329.335938 398.539062 328.496094 398.988281 327.730469 399.476562 L 326.976562 398.65625 C 327.3125 398.210938 327.71875 397.800781 328.109375 397.40625 C 328.285156 397.226562 328.460938 397.050781 328.632812 396.871094 C 328.820312 396.664062 329.066406 396.433594 329.332031 396.179688 C 330.226562 395.335938 331.449219 394.175781 331.277344 393.25 C 331.15625 392.625 330.378906 392.289062 329.703125 392.289062 C 329.652344 392.289062 329.601562 392.289062 329.550781 392.296875 C 328.847656 392.351562 328.269531 392.851562 327.65625 393.382812 C 327.457031 393.554688 327.257812 393.726562 327.054688 393.882812 C 326.039062 394.664062 325.023438 395.4375 323.996094 396.207031 L 323.15625 395.5 C 323.5 394.804688 324 394.035156 324.527344 393.222656 C 325.300781 392.03125 326.101562 390.796875 326.417969 389.789062 C 326.652344 389.027344 326.660156 388.441406 326.4375 388.144531 C 326.230469 387.859375 325.785156 387.800781 325.445312 387.800781 C 324.640625 387.800781 323.53125 388.136719 322.617188 388.660156 C 319.941406 390.128906 317.261719 392.421875 315.0625 395.121094 L 314.46875 395.832031 C 312.648438 398.007812 309.789062 401.425781 308.601562 404.671875 C 304.089844 405.480469 301.722656 412.117188 296.046875 415.601562 C 278.742188 426.21875 266.65625 427.503906 259.464844 427.117188 C 267.316406 422.953125 272.273438 415.828125 274.933594 407.859375 C 277.667969 406.554688 279.671875 402.359375 279.671875 397.375 C 279.671875 393.945312 278.722656 390.890625 277.242188 388.890625 C 276.828125 382.832031 275.351562 377.226562 273.074219 372.976562 C 263.289062 354.621094 242.492188 345.152344 224.140625 350.203125 C 205.296875 355.523438 195.921875 364.828125 190.535156 385.578125 C 190.296875 386.507812 190.109375 387.488281 189.96875 388.503906 C 188.015625 390.390625 186.703125 393.90625 186.703125 397.9375 C 186.703125 403.417969 189.125 407.945312 192.28125 408.71875 C 195.125 417.09375 200.207031 424.699219 207.257812 428.125 L 205.425781 428.164062 L 203.058594 438.121094 L 205.425781 428.164062 C 199.996094 426.683594 191.484375 423.296875 180.96875 416.90625 C 178.71875 415.535156 171.777344 409.777344 170.421875 407.523438 C 169.410156 405.839844 165.03125 400.679688 163.125 399.828125 C 162.058594 399.351562 160.957031 399.46875 159.890625 399.894531 C 158.78125 396.558594 155.792969 392.988281 153.910156 390.742188 L 153.3125 390.027344 C 151.121094 387.332031 148.4375 385.039062 145.753906 383.566406 C 144.847656 383.046875 143.738281 382.710938 142.933594 382.710938 C 142.597656 382.710938 142.152344 382.769531 141.941406 383.054688 C 141.722656 383.351562 141.726562 383.9375 141.960938 384.695312 C 142.28125 385.707031 143.078125 386.941406 143.851562 388.132812 C 144.378906 388.949219 144.875 389.714844 145.226562 390.410156 L 144.378906 391.117188 C 143.359375 390.347656 142.339844 389.574219 141.324219 388.792969 C 141.121094 388.636719 140.921875 388.464844 140.722656 388.292969 C 140.109375 387.765625 139.53125 387.265625 138.828125 387.207031 C 138.777344 387.203125 138.726562 387.199219 138.675781 387.199219 C 138 387.199219 137.21875 387.535156 137.101562 388.160156 C 136.925781 389.089844 138.152344 390.25 139.046875 391.09375 C 139.3125 391.34375 139.554688 391.574219 139.75 391.78125 C 139.914062 391.960938 140.09375 392.140625 140.273438 392.320312 C 140.664062 392.714844 141.066406 393.121094 141.402344 393.570312 L 140.648438 394.386719 C 139.886719 393.898438 139.046875 393.449219 138.152344 393.050781 L 137.933594 392.953125 C 137.34375 392.683594 136.539062 392.316406 135.953125 392.316406 C 135.605469 392.316406 135.386719 392.421875 135.296875 392.960938 C 135.113281 394.128906 135.867188 394.769531 137.117188 395.710938 C 137.289062 395.839844 137.460938 395.96875 137.628906 396.105469 C 138.601562 396.867188 139.378906 397.6875 140.136719 398.480469 C 140.441406 398.800781 140.746094 399.125 141.070312 399.445312 L 140.476562 400.375 C 140.359375 400.335938 140.203125 400.273438 140.019531 400.199219 C 139.144531 399.851562 137.519531 399.207031 136.441406 399.207031 C 135.683594 399.207031 135.683594 399.507812 135.683594 399.75 C 135.683594 400.382812 137.125 401.585938 138.179688 402.460938 C 139.121094 403.246094 140.007812 403.988281 140.390625 404.625 C 140.785156 405.234375 141.109375 405.847656 141.425781 406.441406 C 142.101562 407.703125 142.734375 408.898438 143.949219 409.871094 C 144.777344 410.570312 146.644531 411.988281 148.703125 412.574219 C 148.011719 414.578125 147.789062 416.636719 148.359375 418.550781 C 149.824219 423.449219 153.953125 428.3125 157.058594 432.285156 C 160.351562 436.492188 164.265625 440.332031 168.179688 443.957031 C 179.152344 454.097656 198.695312 450.652344 198.695312 456.480469 L 198.695312 456.484375 C 198.695312 459.054688 200.09375 482.996094 203.96875 500.636719 C 204.269531 501.992188 204.976562 502.945312 205.933594 503.636719 L 205.925781 503.640625 C 211.347656 520.675781 218.832031 533.441406 222.773438 537.667969 C 234.304688 550.34375 240.296875 549.042969 257.175781 545.945312 C 267.285156 556.800781 278.890625 560.144531 290.929688 563.046875 C 293.523438 563.671875 298.566406 564.671875 300.503906 566.4375 C 302.804688 568.535156 299.28125 572.8125 301.484375 575.753906 C 304.859375 581.386719 309.082031 579.136719 311.050781 574.910156 C 313.019531 571.246094 321.742188 554.347656 316.675781 551.53125 C 314.359375 550.238281 311.671875 549.6875 309.351562 548.292969 C 307.238281 547.023438 305.167969 545.660156 303.078125 544.339844 C 298.820312 541.652344 294.625 538.5625 291.433594 534.628906 C 291.019531 534.121094 290.625 533.59375 290.257812 533.054688 C 290.757812 533.148438 291.054688 533.199219 291.054688 533.199219 L 291.621094 533.199219 C 291.554688 533.554688 291.484375 533.910156 291.402344 534.265625 C 292.324219 534.039062 293.183594 533.921875 293.894531 533.984375 C 294.050781 534 294.203125 534.023438 294.34375 534.066406 C 294.386719 533.851562 294.417969 533.640625 294.457031 533.425781 C 295.613281 534.046875 296.859375 535.636719 297.484375 536.863281 C 298.238281 538.339844 299.015625 539.863281 300.589844 540.304688 L 300.644531 540.324219 C 301.757812 540.765625 302.773438 540.988281 303.648438 540.988281 C 304.832031 540.988281 305.753906 540.585938 306.394531 539.792969 C 307.332031 538.625 307.605469 536.628906 307.121094 534.414062 C 305.519531 524.390625 302.222656 512.683594 298.199219 512.683594 C 298.101562 512.683594 298.003906 512.691406 297.902344 512.703125 C 296.675781 512.882812 295.496094 513.230469 294.246094 513.597656 C 293.667969 513.769531 292.488281 513.941406 291.890625 514.097656 C 291.921875 514.175781 291.9375 514.257812 291.960938 514.335938 C 291.886719 514.125 291.816406 513.910156 291.742188 513.699219 C 291.132812 513.84375 290.511719 513.964844 289.878906 514.03125 C 289.5625 514.066406 289.25 514.097656 288.9375 514.128906 C 289.007812 514.328125 289.078125 514.53125 289.148438 514.734375 C 288.386719 514.808594 287.03125 514.875 286.273438 514.941406 C 286.351562 515.589844 286.222656 516.246094 285.949219 516.902344 C 285.003906 509.578125 284.304688 501.265625 284.304688 496.21875 L 284.300781 496.222656 C 284.789062 495.832031 285.203125 495.382812 285.460938 494.851562 C 286.496094 492.707031 285.0625 489.527344 284.273438 487.523438 C 282.742188 483.652344 281.972656 479.765625 281.152344 475.703125 C 280.324219 471.617188 279.003906 467.636719 278.363281 463.511719 C 277.742188 459.5 277.394531 455.027344 277.570312 450.964844 C 290.945312 448.808594 296.703125 447.722656 307.257812 439.417969 C 312.703125 435.136719 312.644531 434.835938 317.097656 429.507812 C 320.511719 425.386719 325.488281 420.128906 323.738281 415.511719 C 324.015625 415.300781 324.253906 415.109375 324.441406 414.953125 C 325.648438 413.988281 326.28125 412.792969 326.953125 411.527344 C 327.269531 410.9375 327.597656 410.324219 327.980469 409.730469 C 328.375 409.074219 329.261719 408.335938 330.203125 407.550781 C 331.253906 406.675781 332.699219 405.46875 332.699219 404.839844 C 332.699219 404.597656 332.699219 404.296875 331.9375 404.296875"/></g><path fill="#9CAFCC" d="M 291.402344 534.265625 C 291.335938 534.28125 291.261719 534.304688 291.195312 534.324219 L 291.1875 534.316406 C 291.261719 534.300781 291.335938 534.28125 291.402344 534.265625"/><path fill="#9CAFCC" d="M 297.117188 537.386719 C 296.355469 535.90625 295.6875 534.453125 294.34375 534.074219 L 294.34375 534.066406 C 295.695312 534.441406 296.367188 535.898438 297.117188 537.386719"/><path fill="#9CAFCC" d="M 178.636719 415.238281 C 176.527344 420.292969 174.128906 425.222656 170.839844 429.644531 C 168.949219 432.183594 166.632812 434.4375 164.226562 436.488281 C 163.585938 437.03125 162.898438 437.589844 162.171875 438.117188 C 162.953125 438.925781 163.75 439.722656 164.554688 440.511719 C 164.671875 440.425781 164.792969 440.339844 164.910156 440.253906 C 167.75 438.113281 170.351562 435.597656 172.601562 432.847656 C 176.4375 428.164062 179.136719 422.757812 181.472656 417.207031 C 181.304688 417.105469 181.140625 417.007812 180.96875 416.90625 C 180.421875 416.570312 179.59375 415.976562 178.636719 415.238281"/><path fill="#9CAFCC" d="M 285.640625 514.425781 C 286.238281 519.480469 286.96875 524.300781 287.699219 527.582031 C 288.355469 530.082031 289.609375 532.308594 291.191406 534.320312 C 291.261719 534.304688 291.335938 534.28125 291.40625 534.265625 C 293.003906 527.445312 291.269531 520.671875 288.9375 514.125 C 287.839844 514.234375 286.742188 514.335938 285.640625 514.425781"/><path fill="#9CAFCC" d="M 300.433594 540.847656 C 306.648438 543.300781 308.683594 538.914062 307.675781 534.324219 C 307.015625 530.183594 303.667969 511.3125 297.824219 512.144531 C 295.761719 512.441406 293.789062 513.214844 291.742188 513.695312 C 294.054688 520.328125 295.734375 527.160156 294.34375 534.074219 C 297.035156 534.824219 297.019531 539.890625 300.433594 540.847656"/><path fill="#9CAFCC" d="M 237.566406 513.4375 L 237.019531 513.582031 C 241.882812 531.945312 249.25 538.867188 255.171875 544.433594 C 255.742188 544.96875 256.296875 545.488281 256.835938 546.007812 C 256.949219 545.984375 257.058594 545.964844 257.175781 545.945312 L 257.371094 545.738281 C 256.789062 545.175781 256.183594 544.605469 255.558594 544.019531 C 249.691406 538.503906 242.386719 531.640625 237.566406 513.4375"/><path fill="#9CAFCC" d="M 309.351562 548.292969 C 308.332031 547.679688 307.324219 547.042969 306.316406 546.40625 C 306.175781 549.621094 305.480469 552.769531 304.042969 555.753906 C 302.410156 559.148438 300.042969 562.097656 297.441406 564.800781 C 298.691406 565.257812 299.800781 565.796875 300.503906 566.4375 C 300.507812 566.441406 300.515625 566.449219 300.519531 566.457031 C 303.039062 563.738281 305.3125 560.792969 306.96875 557.464844 C 308.398438 554.597656 309.234375 551.539062 309.570312 548.410156 C 309.496094 548.371094 309.421875 548.335938 309.351562 548.292969"/><path fill="#9CAFCC" d="M 304.148438 441.75 C 305.039062 441.113281 305.964844 440.421875 306.929688 439.671875 C 304.484375 437.621094 302.289062 435.285156 300.429688 433.007812 C 296.972656 428.765625 293.667969 423.109375 293.042969 417.378906 C 291.972656 417.988281 290.921875 418.566406 289.890625 419.109375 C 290.929688 424.976562 294.226562 430.585938 297.800781 435.113281 C 299.632812 437.4375 301.777344 439.71875 304.148438 441.75"/><path fill="#9CAFCC" d="M 285.09375 489.640625 C 284.886719 490.03125 284.679688 490.417969 284.472656 490.804688 C 283.75 492.164062 283.0625 492.863281 281.675781 493.59375 C 279.785156 494.59375 277.816406 495.183594 275.726562 495.597656 C 267.25 497.277344 258.757812 499 250.246094 500.511719 C 244.835938 501.46875 239.394531 502.191406 233.921875 502.539062 C 233.347656 502.578125 232.773438 502.609375 232.195312 502.640625 C 229.980469 502.746094 227.761719 502.796875 225.535156 502.765625 C 221.15625 502.703125 216.785156 502.3125 212.449219 501.667969 C 209.9375 501.292969 206.558594 501.222656 204.539062 499.484375 C 204.132812 499.132812 203.921875 498.71875 203.789062 498.210938 C 203.695312 497.847656 203.519531 497.582031 203.296875 497.390625 C 203.515625 498.488281 203.738281 499.574219 203.96875 500.636719 C 204.269531 501.992188 204.976562 502.945312 205.933594 503.636719 C 206.160156 503.804688 206.402344 503.953125 206.65625 504.089844 C 206.679688 504.09375 206.703125 504.101562 206.726562 504.109375 C 210.097656 504.992188 213.742188 505.300781 217.195312 505.660156 C 225.585938 506.539062 234.035156 506.199219 242.386719 505.128906 C 250.773438 504.050781 259.050781 502.289062 267.328125 500.601562 C 271.539062 499.746094 275.984375 499.328125 280.074219 497.984375 C 281.699219 497.453125 283.332031 496.65625 284.761719 495.714844 C 284.839844 495.664062 284.90625 495.613281 284.976562 495.558594 C 285.167969 495.339844 285.335938 495.105469 285.460938 494.847656 C 286.179688 493.367188 285.710938 491.382812 285.09375 489.640625"/><path fill="#9CAFCC" d="M 206.988281 433.09375 C 209.722656 434.195312 212.921875 434.664062 215.4375 434.945312 C 218.179688 435.308594 221.023438 435.582031 223.894531 435.753906 C 224.457031 435.789062 225.023438 435.808594 225.589844 435.835938 C 230.003906 436.035156 234.445312 435.980469 238.648438 435.585938 C 244.152344 435.019531 252.847656 433.671875 258.070312 431.269531 C 258.960938 430.824219 260 430.222656 260.972656 429.550781 C 262.464844 440.289062 268.722656 449.933594 277.613281 456.242188 C 277.535156 454.796875 277.511719 453.355469 277.542969 451.953125 C 269.949219 445.796875 264.890625 436.871094 264.125 427.097656 C 263.980469 427.105469 263.835938 427.117188 263.695312 427.121094 C 264.46875 426.078125 264.730469 424.734375 263.890625 424.226562 C 263.554688 424.023438 263.042969 423.953125 262.3125 424.09375 C 261.3125 424.292969 260.363281 424.914062 259.453125 425.304688 C 258.566406 425.683594 257.6875 426.078125 256.800781 426.464844 C 251.4375 428.300781 243.390625 430.140625 237.601562 430.28125 C 233.226562 430.421875 228.851562 430.421875 224.472656 430.28125 C 220.664062 430.140625 216.710938 429.996094 212.898438 429.289062 C 210.242188 428.957031 208.066406 428.394531 205.683594 427.140625 C 205.339844 426.957031 204.925781 426.699219 204.503906 426.511719 C 203.753906 426.175781 202.976562 426.054688 202.53125 426.980469 C 202.488281 427.066406 202.464844 427.15625 202.425781 427.246094 C 201.941406 428.519531 202.292969 429.882812 203.300781 430.84375 C 203.679688 431.207031 204.101562 431.535156 204.550781 431.835938 L 203.546875 436.070312 C 203.316406 439.253906 202.574219 442.433594 201.578125 445.316406 C 201.398438 445.835938 201.195312 446.363281 200.976562 446.886719 L 198.839844 455.878906 C 201.382812 453.578125 203.246094 450.375 204.519531 447.101562 C 206.179688 442.851562 207.160156 437.871094 206.988281 433.09375"/><path fill="#9CAFCC" d="M 241.425781 445.511719 C 242.273438 445.511719 242.960938 446.199219 242.960938 447.046875 C 242.960938 447.894531 242.273438 448.582031 241.425781 448.582031 C 240.578125 448.582031 239.894531 447.894531 239.894531 447.046875 C 239.894531 446.199219 240.578125 445.511719 241.425781 445.511719"/><path fill="#9CAFCC" d="M 247.074219 444.945312 C 247.921875 444.945312 248.605469 445.632812 248.605469 446.480469 C 248.605469 447.328125 247.921875 448.015625 247.074219 448.015625 C 246.226562 448.015625 245.539062 447.328125 245.539062 446.480469 C 245.539062 445.632812 246.226562 444.945312 247.074219 444.945312"/><path fill="#9CAFCC" d="M 252.15625 444.382812 C 253 444.382812 253.6875 445.070312 253.6875 445.914062 C 253.6875 446.765625 253 447.453125 252.15625 447.453125 C 251.308594 447.453125 250.621094 446.765625 250.621094 445.914062 C 250.621094 445.070312 251.308594 444.382812 252.15625 444.382812"/><path fill="#9CAFCC" d="M 265.796875 409.695312 C 268.175781 409.695312 273.136719 408.285156 273.136719 408.285156 C 269.527344 408.285156 266.597656 403.398438 266.597656 397.375 C 266.597656 391.347656 269.527344 386.464844 273.136719 386.464844 C 273.136719 386.464844 268.304688 385.054688 265.796875 385.054688 C 261.71875 385.054688 258.414062 390.566406 258.414062 397.375 C 258.414062 404.179688 261.71875 409.695312 265.796875 409.695312"/><path fill="#9CAFCC" d="M 218.914062 426.519531 C 215.535156 425.921875 211.210938 424.453125 208.460938 422.332031 C 206.078125 420.488281 203.550781 418.148438 201.769531 415.703125 C 198.539062 411.265625 196.839844 405.929688 196.007812 400.546875 C 195.273438 395.789062 194.207031 389.175781 196.40625 384.691406 C 198.582031 380.269531 205.164062 377.289062 209.804688 376.527344 C 216.144531 375.484375 225.535156 427.6875 218.914062 426.519531"/><path fill="#FED9E9" d="M 223.894531 435.753906 C 224.136719 451.59375 226.792969 481.535156 232.195312 502.640625 C 232.773438 502.613281 233.347656 502.578125 233.921875 502.539062 C 228.507812 481.597656 225.839844 451.691406 225.589844 435.835938 C 225.023438 435.808594 224.457031 435.789062 223.894531 435.753906"/><path fill="#FED9E9" d="M 255.402344 453.144531 C 254.789062 454.210938 253.558594 454.394531 252.457031 454.550781 C 249.707031 454.933594 246.976562 455.421875 244.207031 455.65625 C 241.648438 455.875 238.980469 456.03125 238.050781 453.136719 C 237.382812 451.058594 237.292969 448.027344 237.84375 445.921875 C 238.390625 443.832031 240.625 443.589844 242.433594 443.386719 C 245.300781 443.070312 248.199219 442.695312 251.089844 442.710938 C 253.265625 442.714844 255.210938 442.621094 255.410156 445.382812 C 255.535156 447.117188 255.996094 448.800781 256.003906 450.554688 C 256.011719 451.457031 255.855469 452.355469 255.402344 453.144531 Z M 251.96875 442.128906 C 251.675781 442.136719 251.382812 442.148438 251.089844 442.148438 C 247.78125 442.125 244.394531 442.511719 241.121094 442.988281 C 239.191406 443.273438 237.742188 444.070312 237.230469 446.039062 C 236.90625 447.273438 237.007812 448.609375 237.050781 449.871094 C 237.101562 451.230469 237.226562 452.601562 237.714844 453.882812 C 238.660156 456.375 241.140625 456.394531 243.425781 456.277344 C 246.695312 456.117188 249.921875 455.453125 253.160156 455.019531 C 255.21875 454.742188 256.273438 453.355469 256.527344 451.375 C 256.800781 449.199219 256.128906 446.957031 255.925781 444.800781 C 255.714844 442.589844 253.867188 442.085938 251.96875 442.128906"/><path fill="#FED9E9" d="M 241.425781 450.035156 C 242.273438 450.035156 242.960938 450.722656 242.960938 451.570312 C 242.960938 452.417969 242.273438 453.105469 241.425781 453.105469 C 240.578125 453.105469 239.894531 452.417969 239.894531 451.570312 C 239.894531 450.722656 240.578125 450.035156 241.425781 450.035156"/><path fill="#FED9E9" d="M 247.074219 449.46875 C 247.921875 449.46875 248.605469 450.15625 248.605469 451.003906 C 248.605469 451.851562 247.921875 452.539062 247.074219 452.539062 C 246.226562 452.539062 245.539062 451.851562 245.539062 451.003906 C 245.539062 450.15625 246.226562 449.46875 247.074219 449.46875"/><path fill="#FED9E9" d="M 252.15625 448.902344 C 253 448.902344 253.6875 449.589844 253.6875 450.4375 C 253.6875 451.289062 253 451.976562 252.15625 451.976562 C 251.308594 451.976562 250.621094 451.289062 250.621094 450.4375 C 250.621094 449.589844 251.308594 448.902344 252.15625 448.902344"/><path fill="#FED9E9" d="M 241.332031 421.242188 C 245.007812 418.816406 247.78125 415.554688 250.023438 411.769531 C 250.132812 411.578125 250.246094 411.390625 250.355469 411.195312 C 250.425781 411.074219 250.492188 410.953125 250.558594 410.832031 C 250.703125 410.574219 250.84375 410.316406 250.984375 410.050781 C 251.25 409.546875 251.515625 409.035156 251.765625 408.515625 C 252.554688 406.894531 253.140625 405.015625 253.558594 403.210938 C 251.539062 402.984375 247.957031 399.929688 247.574219 403.496094 C 242.03125 401.492188 237.332031 388.765625 237.332031 388.765625 C 237.332031 388.765625 218.636719 389.777344 213.285156 382.152344 C 210.316406 385.183594 207.097656 391.34375 207.945312 399.597656 C 208.097656 401.101562 209.195312 403.679688 208.941406 405.589844 C 208.703125 407.398438 208.339844 409.160156 207.96875 410.449219 C 206.585938 415.234375 207.691406 420.035156 210.746094 423.777344 C 213.285156 425.125 216.367188 426.070312 218.914062 426.519531 C 225.535156 427.6875 232.792969 425.6875 238.714844 422.746094 C 239.636719 422.289062 240.507812 421.785156 241.332031 421.242188"/><path fill="#FED9E9" d="M 143.851562 391.847656 C 141.242188 394.703125 146.015625 400.96875 152.679688 400.164062 C 159.339844 399.363281 155.609375 392.933594 155.609375 392.933594 C 155.609375 392.933594 146.460938 388.996094 143.851562 391.847656"/><path fill="#FED9E9" d="M 324.929688 397.398438 C 323.015625 396.019531 314.34375 396.179688 312.722656 398.164062 C 311.101562 400.148438 310.96875 405.652344 317.902344 405.289062 C 324.839844 404.929688 327.988281 399.609375 324.929688 397.398438"/><g clip-path="url(#b)"><path fill="#232946" d="M 154.972656 393.464844 C 155.011719 393.46875 155.039062 393.5 155.039062 393.535156 C 155.039062 393.574219 155.007812 393.597656 154.972656 393.601562 C 154.972656 393.601562 154.621094 393.613281 154.007812 393.628906 C 153.699219 393.625 153.328125 393.667969 152.898438 393.632812 C 152.464844 393.605469 151.980469 393.574219 151.445312 393.539062 C 150.90625 393.476562 150.335938 393.28125 149.769531 393.097656 C 149.195312 392.90625 148.597656 392.707031 147.980469 392.558594 C 147.363281 392.417969 146.710938 392.367188 146.121094 392.5625 C 145.804688 392.683594 145.535156 392.8125 145.292969 393.011719 C 145.050781 393.210938 144.855469 393.453125 144.730469 393.730469 C 144.464844 394.277344 144.5625 394.941406 144.925781 395.445312 C 145.089844 395.695312 145.347656 395.921875 145.578125 396.082031 C 145.867188 396.253906 146.144531 396.457031 146.433594 396.589844 C 146.71875 396.71875 146.992188 396.855469 147.277344 396.96875 C 147.570312 397.078125 147.855469 397.183594 148.132812 397.285156 C 148.703125 397.449219 149.246094 397.613281 149.757812 397.722656 C 150.265625 397.84375 150.738281 397.925781 151.152344 398.019531 C 151.574219 398.089844 151.941406 398.15625 152.242188 398.210938 C 152.847656 398.3125 153.191406 398.371094 153.191406 398.371094 C 153.226562 398.375 153.25 398.40625 153.246094 398.441406 C 153.238281 398.472656 153.210938 398.496094 153.179688 398.496094 C 153.179688 398.496094 152.828125 398.46875 152.214844 398.421875 C 151.910156 398.386719 151.535156 398.347656 151.109375 398.300781 C 150.683594 398.242188 150.203125 398.195312 149.683594 398.085938 C 149.15625 397.996094 148.601562 397.855469 148.007812 397.710938 C 147.714844 397.617188 147.414062 397.519531 147.105469 397.421875 C 146.796875 397.316406 146.492188 397.160156 146.175781 397.027344 C 145.867188 396.882812 145.601562 396.695312 145.304688 396.527344 C 144.980469 396.304688 144.710938 396.070312 144.488281 395.75 C 144.265625 395.4375 144.101562 395.070312 144.042969 394.671875 C 143.988281 394.277344 144.050781 393.863281 144.214844 393.496094 C 144.382812 393.128906 144.644531 392.820312 144.945312 392.578125 C 145.101562 392.464844 145.257812 392.355469 145.441406 392.269531 C 145.628906 392.164062 145.753906 392.132812 145.949219 392.050781 C 146.6875 391.820312 147.4375 391.90625 148.09375 392.058594 C 148.753906 392.21875 149.355469 392.460938 149.914062 392.671875 C 150.484375 392.882812 150.996094 393.082031 151.5 393.164062 C 152.015625 393.226562 152.488281 393.28125 152.910156 393.335938 C 153.324219 393.398438 153.707031 393.386719 154.011719 393.410156 C 154.625 393.445312 154.972656 393.464844 154.972656 393.464844 Z M 146.035156 383.074219 C 144.058594 381.941406 140.292969 381.1875 141.421875 384.863281 C 141.988281 386.652344 143.875 388.96875 144.71875 390.664062 C 143.699219 389.898438 142.679688 389.125 141.667969 388.34375 C 140.816406 387.6875 140.019531 386.738281 138.875 386.644531 C 137.957031 386.566406 136.742188 387.03125 136.546875 388.054688 C 136.257812 389.597656 138.425781 391.1875 139.335938 392.167969 C 139.863281 392.734375 140.488281 393.289062 140.949219 393.910156 C 140.132812 393.386719 139.269531 392.933594 138.382812 392.535156 C 137.25 392.027344 135.066406 390.898438 134.738281 392.871094 C 134.457031 394.664062 135.960938 395.511719 137.28125 396.546875 C 138.597656 397.585938 139.539062 398.714844 140.667969 399.84375 C 139.632812 399.46875 135.117188 397.398438 135.117188 399.75 C 135.117188 401.261719 139.070312 403.523438 139.917969 404.933594 C 141.140625 406.820312 141.703125 408.796875 143.585938 410.304688 C 144.890625 411.398438 146.679688 412.578125 148.527344 413.113281 C 149.628906 409.4375 152.382812 405.878906 154.816406 403.652344 C 156.238281 402.351562 158.289062 400.332031 160.421875 399.710938 C 159.164062 395.921875 155.644531 391.957031 153.75 389.671875 C 151.679688 387.125 148.949219 384.675781 146.035156 383.074219"/></g><g clip-path="url(#c)"><path fill="#232946" d="M 324.332031 399.761719 C 324.277344 400.160156 324.113281 400.527344 323.890625 400.839844 C 323.667969 401.160156 323.394531 401.394531 323.074219 401.617188 C 322.777344 401.785156 322.507812 401.972656 322.199219 402.117188 C 321.882812 402.25 321.578125 402.40625 321.273438 402.511719 C 320.964844 402.609375 320.664062 402.707031 320.371094 402.800781 C 319.777344 402.945312 319.21875 403.085938 318.695312 403.171875 C 318.175781 403.28125 317.691406 403.328125 317.265625 403.390625 C 316.839844 403.4375 316.46875 403.476562 316.164062 403.511719 C 315.550781 403.554688 315.199219 403.582031 315.199219 403.582031 C 315.164062 403.585938 315.132812 403.558594 315.128906 403.527344 C 315.128906 403.492188 315.152344 403.464844 315.183594 403.457031 C 315.183594 403.457031 315.53125 403.398438 316.136719 403.300781 C 316.4375 403.246094 316.804688 403.179688 317.222656 403.105469 C 317.640625 403.015625 318.113281 402.933594 318.621094 402.808594 C 319.132812 402.703125 319.671875 402.539062 320.246094 402.375 C 320.519531 402.273438 320.804688 402.167969 321.097656 402.058594 C 321.386719 401.945312 321.660156 401.808594 321.945312 401.679688 C 322.230469 401.546875 322.511719 401.34375 322.800781 401.171875 C 323.03125 401.007812 323.289062 400.785156 323.453125 400.53125 C 323.8125 400.03125 323.914062 399.367188 323.644531 398.816406 C 323.523438 398.542969 323.328125 398.300781 323.089844 398.101562 C 322.84375 397.902344 322.574219 397.773438 322.257812 397.652344 C 321.667969 397.457031 321.015625 397.507812 320.398438 397.648438 C 319.777344 397.792969 319.183594 397.996094 318.609375 398.183594 C 318.042969 398.371094 317.46875 398.566406 316.929688 398.628906 C 316.398438 398.660156 315.914062 398.691406 315.480469 398.71875 C 315.046875 398.753906 314.679688 398.714844 314.371094 398.71875 C 313.757812 398.703125 313.40625 398.691406 313.40625 398.691406 C 313.367188 398.6875 313.335938 398.65625 313.335938 398.621094 C 313.339844 398.585938 313.367188 398.558594 313.402344 398.554688 C 313.402344 398.554688 313.753906 398.535156 314.367188 398.5 C 314.671875 398.476562 315.050781 398.492188 315.46875 398.425781 C 315.890625 398.375 316.363281 398.316406 316.878906 398.253906 C 317.382812 398.171875 317.890625 397.972656 318.460938 397.761719 C 319.023438 397.550781 319.621094 397.3125 320.285156 397.152344 C 320.941406 396.996094 321.691406 396.910156 322.429688 397.144531 C 322.625 397.222656 322.75 397.253906 322.9375 397.359375 C 323.117188 397.445312 323.273438 397.558594 323.429688 397.671875 C 323.734375 397.914062 323.992188 398.222656 324.160156 398.585938 C 324.328125 398.949219 324.390625 399.363281 324.332031 399.761719 Z M 327.710938 404.933594 C 328.839844 403.804688 329.78125 402.671875 331.097656 401.636719 C 332.414062 400.597656 333.921875 399.75 333.640625 397.960938 C 333.308594 395.984375 331.128906 397.117188 329.996094 397.625 C 329.109375 398.019531 328.246094 398.472656 327.425781 399 C 327.890625 398.378906 328.515625 397.820312 329.042969 397.253906 C 329.953125 396.277344 332.121094 394.6875 331.828125 393.144531 C 331.636719 392.117188 330.425781 391.652344 329.503906 391.730469 C 328.355469 391.824219 327.5625 392.773438 326.707031 393.433594 C 325.699219 394.214844 324.679688 394.984375 323.65625 395.753906 C 324.503906 394.054688 326.390625 391.742188 326.953125 389.953125 C 328.085938 386.277344 324.320312 387.03125 322.34375 388.160156 C 319.425781 389.765625 316.699219 392.210938 314.625 394.757812 C 312.726562 397.054688 309.191406 401.035156 307.945312 404.832031 C 309.421875 404.363281 311.113281 404.519531 313.25 405.671875 C 316.292969 407.316406 318.71875 410.316406 321.394531 412.476562 C 322.804688 413.613281 323.589844 414.824219 323.917969 416.078125 C 324.226562 415.851562 324.519531 415.621094 324.792969 415.390625 C 326.671875 413.882812 327.238281 411.90625 328.460938 410.023438 C 329.308594 408.609375 333.261719 406.347656 333.261719 404.839844 C 333.261719 402.484375 328.746094 404.558594 327.710938 404.933594"/></g><path fill="#232946" d="M 247.636719 384.53125 C 242.308594 380.941406 234.59375 378.253906 229.121094 377.207031 C 222.785156 376.011719 216.144531 375.484375 209.804688 376.527344 C 208.300781 376.773438 206.597656 377.253906 204.90625 377.9375 C 202.445312 380.140625 200.75 383.738281 200.785156 386.941406 C 200.804688 388.851562 201.34375 390.714844 202.234375 392.394531 C 202.480469 392.859375 205.71875 397.246094 205.78125 397.167969 C 203.519531 399.976562 206.136719 403.464844 208.941406 405.589844 C 209.195312 403.679688 209.3125 401.710938 209.15625 400.207031 C 208.3125 391.957031 210.769531 386.761719 213.742188 383.730469 C 219.09375 391.355469 227.660156 391.890625 236.472656 390.703125 C 236.363281 395.636719 242.675781 403.429688 248.21875 405.433594 C 249.402344 403.8125 251.539062 402.984375 253.558594 403.210938 C 253.636719 402.886719 253.707031 402.5625 253.773438 402.246094 C 255.082031 395.804688 253.3125 388.355469 247.636719 384.53125"/><path fill="#232946" d="M 252.25 405.769531 C 252.25 405.769531 252.140625 405.8125 251.949219 405.894531 C 251.855469 405.929688 251.746094 406.007812 251.617188 406.09375 C 251.480469 406.175781 251.359375 406.292969 251.226562 406.425781 C 251.082031 406.550781 250.976562 406.722656 250.84375 406.886719 C 250.734375 407.066406 250.601562 407.253906 250.511719 407.46875 C 250.414062 407.675781 250.320312 407.894531 250.25 408.125 C 250.171875 408.351562 250.121094 408.589844 250.058594 408.824219 C 249.96875 409.300781 249.910156 409.78125 249.902344 410.234375 C 249.894531 410.6875 249.921875 411.105469 249.96875 411.460938 C 249.988281 411.570312 250.003906 411.671875 250.019531 411.769531 C 250.132812 411.578125 250.246094 411.390625 250.355469 411.195312 C 250.359375 411.097656 250.359375 411.007812 250.367188 410.90625 C 250.382812 410.902344 250.394531 410.902344 250.410156 410.898438 C 250.410156 410.898438 250.464844 410.871094 250.558594 410.828125 C 250.703125 410.574219 250.84375 410.3125 250.980469 410.050781 C 250.910156 410.089844 250.839844 410.121094 250.777344 410.152344 C 250.648438 410.222656 250.511719 410.261719 250.410156 410.296875 C 250.414062 410.285156 250.414062 410.277344 250.414062 410.265625 C 250.457031 409.835938 250.519531 409.386719 250.613281 408.941406 C 250.664062 408.722656 250.703125 408.5 250.777344 408.289062 C 250.835938 408.074219 250.902344 407.867188 250.980469 407.675781 C 251.054688 407.476562 251.148438 407.300781 251.230469 407.125 C 251.335938 406.972656 251.40625 406.796875 251.515625 406.675781 C 251.617188 406.542969 251.703125 406.414062 251.800781 406.328125 C 251.890625 406.234375 251.964844 406.140625 252.058594 406.085938 C 252.222656 405.964844 252.316406 405.886719 252.316406 405.886719 C 252.339844 405.867188 252.347656 405.835938 252.335938 405.808594 C 252.324219 405.773438 252.285156 405.757812 252.25 405.769531"/><path fill="#232946" d="M 220.304688 411.074219 C 220.371094 410.902344 220.480469 410.753906 220.589844 410.617188 C 220.652344 410.554688 220.714844 410.496094 220.773438 410.433594 C 220.839844 410.375 220.914062 410.332031 220.980469 410.28125 C 221.113281 410.171875 221.273438 410.132812 221.40625 410.054688 C 221.546875 409.996094 221.683594 409.96875 221.804688 409.925781 C 221.921875 409.878906 222.046875 409.878906 222.140625 409.859375 C 222.328125 409.820312 222.4375 409.800781 222.4375 409.800781 C 222.4375 409.800781 222.328125 409.78125 222.140625 409.746094 C 222.042969 409.738281 221.933594 409.695312 221.792969 409.710938 C 221.65625 409.71875 221.492188 409.707031 221.320312 409.746094 C 221.15625 409.792969 220.957031 409.804688 220.78125 409.914062 C 220.691406 409.960938 220.59375 410.003906 220.5 410.058594 C 220.410156 410.125 220.324219 410.199219 220.238281 410.273438 C 220.082031 410.433594 219.90625 410.613281 219.8125 410.839844 C 219.695312 411.054688 219.640625 411.300781 219.601562 411.539062 C 219.59375 411.660156 219.582031 411.785156 219.585938 411.902344 L 219.625 412.261719 C 219.679688 412.492188 219.742188 412.71875 219.851562 412.914062 C 219.9375 413.121094 220.070312 413.285156 220.191406 413.445312 C 220.308594 413.605469 220.464844 413.71875 220.585938 413.839844 C 220.714844 413.949219 220.855469 414.023438 220.96875 414.101562 C 221.078125 414.179688 221.199219 414.214844 221.285156 414.253906 C 221.46875 414.328125 221.570312 414.363281 221.570312 414.363281 C 221.570312 414.363281 221.488281 414.289062 221.347656 414.160156 C 221.277344 414.09375 221.183594 414.03125 221.101562 413.929688 C 221.015625 413.832031 220.910156 413.730469 220.816406 413.609375 C 220.730469 413.476562 220.617188 413.355469 220.535156 413.199219 C 220.453125 413.050781 220.367188 412.890625 220.304688 412.714844 C 220.226562 412.546875 220.210938 412.355469 220.164062 412.171875 L 220.140625 411.890625 C 220.140625 411.796875 220.15625 411.703125 220.160156 411.605469 C 220.1875 411.421875 220.21875 411.234375 220.304688 411.074219"/><path fill="#232946" d="M 216.265625 408.109375 C 216.355469 408.265625 216.402344 408.355469 216.402344 408.355469 C 216.402344 408.355469 216.394531 408.253906 216.375 408.074219 C 216.347656 407.898438 216.292969 407.640625 216.175781 407.351562 C 216.121094 407.203125 216.046875 407.046875 215.953125 406.890625 C 215.863281 406.734375 215.757812 406.570312 215.621094 406.421875 C 215.492188 406.269531 215.34375 406.117188 215.171875 405.992188 C 215.007812 405.855469 214.820312 405.742188 214.628906 405.640625 C 214.433594 405.554688 214.234375 405.464844 214.027344 405.417969 C 213.824219 405.347656 213.617188 405.332031 213.417969 405.308594 C 213.019531 405.273438 212.652344 405.308594 212.347656 405.371094 C 212.039062 405.4375 211.796875 405.511719 211.632812 405.585938 C 211.46875 405.652344 211.375 405.695312 211.375 405.695312 C 211.375 405.695312 211.480469 405.699219 211.660156 405.695312 C 211.835938 405.679688 212.089844 405.6875 212.378906 405.691406 C 212.519531 405.699219 212.675781 405.710938 212.84375 405.722656 C 213.007812 405.742188 213.175781 405.769531 213.351562 405.796875 C 213.523438 405.835938 213.699219 405.878906 213.871094 405.9375 C 214.046875 405.984375 214.210938 406.070312 214.378906 406.144531 C 214.542969 406.230469 214.703125 406.316406 214.847656 406.425781 C 214.992188 406.535156 215.136719 406.640625 215.261719 406.765625 C 215.519531 407 215.722656 407.269531 215.890625 407.5 C 216.054688 407.742188 216.179688 407.957031 216.265625 408.109375"/><path fill="#232946" d="M 236.820312 408.152344 C 236.753906 408.003906 236.660156 407.835938 236.542969 407.636719 C 236.425781 407.445312 236.269531 407.242188 236.085938 407.027344 C 235.71875 406.609375 235.203125 406.164062 234.539062 405.878906 C 234.214844 405.734375 233.851562 405.632812 233.476562 405.578125 C 233.292969 405.550781 233.09375 405.542969 232.898438 405.539062 C 232.800781 405.539062 232.714844 405.546875 232.625 405.546875 C 232.539062 405.550781 232.421875 405.5625 232.339844 405.574219 C 231.589844 405.671875 230.871094 405.917969 230.257812 406.253906 C 229.648438 406.589844 229.125 406.988281 228.742188 407.390625 C 228.359375 407.792969 228.105469 408.179688 227.949219 408.464844 C 227.867188 408.605469 227.824219 408.722656 227.789062 408.796875 C 227.753906 408.875 227.734375 408.917969 227.734375 408.917969 L 227.734375 408.921875 C 227.722656 408.953125 227.730469 408.992188 227.765625 409.007812 C 227.796875 409.023438 227.839844 409.015625 227.855469 408.980469 C 227.855469 408.980469 227.945312 408.820312 228.125 408.570312 C 228.292969 408.320312 228.582031 407.976562 228.980469 407.636719 C 229.179688 407.46875 229.398438 407.289062 229.648438 407.125 C 229.894531 406.957031 230.171875 406.804688 230.46875 406.667969 C 231.054688 406.402344 231.722656 406.179688 232.402344 406.121094 C 232.496094 406.109375 232.554688 406.101562 232.648438 406.101562 C 232.738281 406.101562 232.832031 406.089844 232.914062 406.09375 C 233.074219 406.105469 233.234375 406.109375 233.398438 406.140625 C 233.722656 406.183594 234.039062 406.265625 234.332031 406.386719 C 234.917969 406.617188 235.410156 406.972656 235.796875 407.316406 C 235.988281 407.492188 236.144531 407.671875 236.285156 407.832031 C 236.421875 407.992188 236.539062 408.140625 236.625 408.269531 C 236.800781 408.523438 236.898438 408.675781 236.898438 408.675781 L 236.902344 408.675781 C 236.914062 408.703125 236.949219 408.710938 236.976562 408.703125 C 237.007812 408.6875 237.023438 408.652344 237.011719 408.621094 C 237.011719 408.621094 236.996094 408.578125 236.964844 408.496094 C 236.933594 408.417969 236.894531 408.296875 236.820312 408.152344"/><path fill="#232946" d="M 228.902344 403.214844 C 230.089844 402.425781 231.1875 402.183594 232.5625 402.0625 C 233.195312 401.984375 235.886719 401.648438 234.929688 400.425781 C 234.195312 399.660156 231.488281 399.890625 230.554688 400.113281 C 229.304688 400.429688 227.101562 401.242188 226.6875 402.636719 C 226.164062 404.46875 228.011719 403.808594 228.902344 403.214844"/><path fill="#232946" d="M 216.75 403.425781 C 217.566406 404.117188 219.328125 404.980469 219.015625 403.097656 C 218.757812 401.667969 216.664062 400.613281 215.460938 400.15625 C 214.558594 399.8125 213.460938 399.589844 212.492188 399.597656 C 212.121094 399.601562 211.515625 399.789062 211.160156 400.074219 C 210.824219 400.347656 210.703125 400.714844 211.207031 401.109375 C 211.730469 401.515625 212.601562 401.734375 213.242188 401.863281 C 214.601562 402.136719 215.660156 402.503906 216.75 403.425781"/><path fill="#232946" d="M 216.070312 416.589844 L 215.65625 416.976562 C 217.582031 419.046875 219.96875 419.84375 222.363281 419.84375 C 224.695312 419.84375 227.035156 419.09375 228.988281 418.019531 L 228.714844 417.523438 C 224.949219 419.597656 219.648438 420.4375 216.070312 416.589844"/></svg>