<svg xmlns="http://www.w3.org/2000/svg" xmlns:xlink="http://www.w3.org/1999/xlink" width="500" zoomAndPan="magnify" viewBox="0 0 375 374.999991" height="500" preserveAspectRatio="xMidYMid meet" version="1.0"><defs><clipPath id="0b126cf17d"><path d="M 32 27 L 353 27 L 353 347.933594 L 32 347.933594 Z M 32 27 " clip-rule="nonzero"/></clipPath></defs><g clip-path="url(#0b126cf17d)"><path fill="#004aad" d="M 303.867188 121.285156 C 301.867188 147.246094 291.878906 174.203125 275.898438 199.664062 L 263.414062 156.230469 L 264.910156 150.238281 L 272.402344 125.277344 L 253.921875 134.265625 L 222.960938 126.777344 C 222.960938 118.789062 216.464844 111.800781 207.976562 111.800781 C 199.984375 111.800781 192.992188 118.289062 192.992188 126.777344 C 192.992188 134.765625 199.484375 141.753906 207.976562 141.753906 C 213.46875 141.753906 217.964844 138.757812 220.460938 134.765625 L 253.425781 143.25 L 271.902344 205.152344 C 245.433594 245.589844 204.480469 280.535156 160.03125 298.007812 C 90.113281 324.96875 36.175781 298.007812 34.175781 237.105469 C 33.679688 241.597656 33.179688 245.589844 32.679688 249.585938 C 27.183594 331.457031 94.109375 369.898438 182.503906 335.453125 C 270.902344 301.503906 346.816406 207.152344 352.308594 125.777344 C 357.804688 43.90625 290.878906 5.464844 202.484375 39.910156 C 197.988281 41.910156 193.492188 43.40625 189 45.902344 C 256.917969 25.433594 306.363281 57.882812 302.367188 122.285156 Z M 275.898438 199.664062 C 276.898438 198.164062 277.394531 196.667969 278.394531 195.167969 L 281.890625 206.652344 C 281.890625 206.652344 282.390625 206.652344 282.390625 206.652344 C 289.382812 206.652344 294.875 212.144531 294.875 219.132812 C 294.875 226.121094 289.382812 231.613281 282.390625 231.613281 C 275.398438 231.613281 269.90625 226.121094 269.90625 219.132812 C 269.90625 215.140625 271.402344 212.144531 274.398438 209.648438 Z M 274.398438 209.648438 Z M 274.398438 209.648438 Z M 274.398438 209.648438 Z M 274.398438 209.648438 Z M 274.398438 209.648438 Z M 274.398438 209.648438 Z M 274.398438 209.648438 Z M 274.398438 209.648438 Z M 274.398438 209.648438 Z M 274.398438 209.648438 Z M 274.398438 209.648438 Z M 274.398438 209.648438 Z M 274.398438 209.648438 Z M 274.398438 209.648438 Z M 274.398438 209.648438 Z M 274.398438 209.648438 Z M 274.398438 209.648438 Z M 274.398438 209.648438 Z M 274.398438 209.648438 Z M 274.398438 209.648438 Z M 274.398438 209.648438 Z M 274.398438 209.648438 Z M 274.398438 209.648438 L 277.394531 207.648438 L 275.398438 199.664062 L 274.398438 209.148438 Z M 274.398438 209.648438 Z M 281.390625 207.152344 Z M 280.890625 207.152344 C 280.890625 207.152344 280.890625 207.152344 280.394531 207.152344 C 280.394531 207.152344 280.394531 207.152344 280.890625 207.152344 Z M 280.394531 207.152344 C 280.394531 207.152344 280.394531 207.152344 279.894531 207.152344 C 279.894531 207.152344 279.894531 207.152344 280.394531 207.152344 Z M 279.894531 207.152344 C 279.894531 207.152344 279.894531 207.152344 279.394531 207.152344 C 279.394531 207.152344 279.394531 207.152344 279.894531 207.152344 Z M 279.394531 207.152344 C 279.394531 207.152344 279.394531 207.152344 278.894531 207.152344 C 278.894531 207.152344 278.894531 207.152344 279.394531 207.152344 Z M 278.894531 207.152344 C 278.894531 207.152344 278.894531 207.152344 278.394531 207.152344 Z M 278.394531 207.152344 C 278.394531 207.152344 278.394531 207.152344 277.894531 207.152344 C 277.894531 207.152344 277.894531 207.152344 278.394531 207.152344 Z M 277.894531 207.152344 C 277.894531 207.152344 277.894531 207.152344 277.394531 207.152344 C 277.394531 207.152344 277.394531 207.152344 277.894531 207.152344 Z M 277.394531 207.152344 C 277.394531 207.152344 277.394531 207.152344 276.898438 207.152344 C 276.898438 207.152344 276.898438 207.152344 277.394531 207.152344 Z M 276.898438 207.152344 C 276.898438 207.152344 276.898438 207.152344 276.398438 207.152344 C 276.398438 207.152344 276.398438 207.152344 276.898438 207.152344 Z M 276.398438 207.152344 C 276.398438 207.152344 276.398438 207.152344 275.898438 207.152344 Z M 276.398438 207.152344 " fill-opacity="1" fill-rule="evenodd"/></g><path fill="#004aad" d="M 101.597656 271.050781 C 94.605469 263.0625 88.613281 254.078125 83.121094 245.09375 L 50.160156 253.078125 C 57.152344 261.566406 64.640625 268.554688 73.132812 275.046875 L 102.097656 271.050781 Z M 222.960938 66.871094 C 225.957031 66.871094 227.953125 69.367188 227.953125 71.863281 C 227.953125 74.855469 225.457031 76.855469 222.960938 76.855469 C 219.960938 76.855469 217.964844 74.359375 217.964844 71.863281 C 217.964844 68.867188 220.460938 66.871094 222.960938 66.871094 Z M 222.960938 59.382812 C 229.949219 59.382812 235.445312 64.871094 235.445312 71.863281 C 235.445312 78.851562 229.949219 84.34375 222.960938 84.34375 C 215.96875 84.34375 210.472656 78.851562 210.472656 71.863281 C 210.472656 70.863281 210.472656 69.863281 210.972656 69.367188 L 192.496094 62.375 L 167.523438 66.871094 L 162.527344 78.851562 L 177.511719 109.800781 L 142.050781 122.78125 L 127.070312 86.839844 L 156.035156 77.851562 L 162.03125 64.375 L 147.046875 42.40625 C 148.046875 42.40625 149.042969 42.40625 150.042969 42.40625 C 159.53125 42.40625 169.019531 43.40625 178.511719 45.402344 C 182.503906 46.402344 187 47.398438 190.996094 48.898438 C 195.492188 50.394531 199.984375 52.390625 204.480469 54.390625 C 202.980469 54.886719 201.484375 54.886719 199.984375 55.386719 L 213.46875 64.375 C 215.96875 61.378906 219.464844 59.382812 223.457031 59.382812 Z M 79.125 63.375 C 81.121094 75.355469 83.621094 86.839844 86.117188 97.820312 L 117.582031 82.84375 L 103.597656 50.394531 C 95.105469 53.890625 86.617188 57.882812 79.125 62.875 Z M 23.191406 145.246094 L 46.164062 127.277344 C 45.164062 117.292969 44.664062 107.304688 44.664062 96.824219 C 34.175781 111.300781 27.183594 127.773438 23.191406 145.746094 Z M 52.15625 166.714844 C 49.660156 156.230469 48.160156 145.246094 46.664062 133.765625 L 21.691406 152.238281 C 20.691406 158.726562 20.191406 164.71875 20.191406 171.207031 C 20.191406 175.699219 20.191406 180.191406 20.691406 184.6875 L 51.65625 166.714844 Z M 59.148438 162.71875 L 90.613281 144.75 C 87.117188 133.265625 84.121094 120.785156 81.121094 108.804688 L 53.65625 129.273438 C 55.152344 140.753906 57.152344 152.238281 59.648438 163.21875 Z M 70.636719 202.160156 L 105.59375 187.679688 C 101.101562 176.199219 97.105469 164.21875 93.109375 152.238281 L 61.144531 169.710938 C 63.644531 181.191406 67.140625 191.675781 71.132812 202.160156 Z M 32.179688 224.625 C 36.175781 233.109375 41.167969 241.597656 46.664062 248.585938 L 48.660156 248.085938 L 79.125 239.101562 C 74.132812 230.613281 70.136719 221.628906 66.140625 212.144531 Z M 90.113281 243.09375 C 95.605469 252.582031 101.597656 261.566406 108.589844 270.054688 L 144.550781 265.0625 C 138.058594 255.078125 132.0625 245.09375 126.570312 234.109375 L 89.613281 242.597656 Z M 90.113281 243.09375 " fill-opacity="1" fill-rule="evenodd"/><path fill="#00bf63" d="M 52.65625 121.785156 L 79.625 100.816406 C 77.128906 89.832031 75.128906 78.851562 73.132812 67.867188 C 64.640625 73.859375 57.152344 81.347656 50.65625 89.335938 C 51.15625 100.316406 52.15625 111.300781 53.15625 122.285156 Z M 183.503906 211.644531 L 156.035156 198.164062 C 156.035156 191.675781 151.042969 186.683594 144.550781 186.683594 C 138.058594 186.683594 133.0625 191.675781 133.0625 198.164062 C 133.0625 204.65625 138.058594 209.648438 144.550781 209.648438 C 148.046875 209.648438 151.542969 208.148438 153.539062 205.652344 L 181.507812 219.632812 L 179.011719 213.640625 L 198.488281 264.0625 C 207.476562 258.070312 215.46875 251.582031 223.457031 244.09375 C 224.457031 243.09375 225.457031 242.097656 226.953125 241.097656 L 213.96875 199.664062 L 179.011719 213.640625 Z M 145.546875 169.210938 L 177.511719 177.199219 C 177.511719 185.683594 184.503906 192.671875 192.992188 192.671875 C 201.484375 192.671875 208.476562 185.683594 208.476562 177.199219 C 208.476562 168.710938 201.484375 161.722656 192.992188 161.722656 C 187.5 161.722656 182.503906 164.71875 179.507812 169.210938 L 148.546875 161.722656 L 136.558594 131.269531 L 99.101562 147.742188 C 103.097656 160.222656 107.09375 172.207031 112.085938 183.6875 L 151.042969 166.714844 L 146.046875 169.210938 Z M 192.992188 185.183594 C 188.5 185.183594 185.003906 181.691406 185.003906 177.199219 C 185.003906 172.703125 188.5 169.210938 192.992188 169.210938 C 197.488281 169.210938 200.984375 172.703125 200.984375 177.199219 C 200.984375 181.691406 197.488281 185.183594 192.992188 185.183594 Z M 144.050781 193.171875 C 147.046875 193.171875 149.042969 195.667969 149.042969 198.164062 C 149.042969 201.160156 146.546875 203.15625 144.050781 203.15625 C 141.054688 203.15625 139.054688 200.660156 139.054688 198.164062 C 139.054688 195.167969 141.554688 193.171875 144.050781 193.171875 Z M 124.574219 295.015625 C 117.582031 289.023438 111.089844 282.535156 105.09375 276.042969 L 77.128906 278.539062 C 88.613281 286.527344 101.597656 292.019531 115.582031 296.011719 C 118.578125 296.011719 121.578125 295.511719 124.074219 295.015625 Z M 148.546875 272.050781 L 112.585938 275.542969 C 118.082031 282.035156 124.074219 288.023438 130.566406 294.015625 C 139.554688 292.519531 148.546875 289.523438 156.535156 286.527344 C 157.035156 286.527344 157.535156 286.027344 158.535156 286.027344 C 155.039062 281.535156 152.039062 277.042969 149.042969 272.550781 Z M 113.085938 107.304688 L 107.09375 90.332031 L 88.613281 99.320312 Z M 144.550781 125.277344 L 167.523438 134.765625 L 163.527344 117.789062 Z M 102.597656 142.253906 L 121.578125 133.765625 L 113.085938 118.789062 L 102.597656 142.75 Z M 108.089844 196.167969 L 72.632812 209.148438 C 76.628906 218.632812 80.625 227.621094 85.617188 236.605469 L 121.578125 225.621094 C 116.582031 216.136719 112.085938 206.152344 108.089844 195.667969 Z M 53.15625 173.203125 L 21.191406 190.675781 C 22.691406 200.660156 25.1875 210.144531 29.183594 219.132812 L 62.644531 204.65625 C 58.648438 194.671875 55.652344 183.6875 53.15625 172.703125 Z M 53.15625 173.203125 " fill-opacity="1" fill-rule="evenodd"/></svg>